<svg width="176" height="174" viewBox="0 0 176 174" fill="none" xmlns="http://www.w3.org/2000/svg">
<rect width="176" height="174" fill="white"/>
<path d="M47.375 99.4375L45.5625 97.625C45.1875 97.25 44.6875 97 44.125 97C43.5625 97 43.0625 97.25 42.6875 97.625L39.8125 100.5C39.5625 100.75 39.375 101.062 39.25 101.375L38.5 103.625L33.75 108.438C33 107.875 32.1875 107.438 31.25 107.25C29.125 106.75 27.0625 107.188 25.625 108.625C25.0625 109.188 24.625 109.875 24.375 110.688C24 111.875 22.9375 112.75 21.75 112.875C20.25 113 18.875 113.562 17.8125 114.625C14.9375 117.438 15.5 122.562 18.9375 126.062C22.4375 129.5 27.5625 130 30.375 127.188C31.4375 126.125 32 124.75 32.1875 123.25C32.25 122.062 33.125 121 34.3125 120.625C35.125 120.375 35.8125 119.938 36.375 119.375C37.8125 117.938 38.25 115.875 37.75 113.75C37.5625 112.875 37.125 112 36.5625 111.25L41.375 106.5L43.625 105.75C43.9375 105.625 44.25 105.438 44.5 105.188L47.375 102.312C47.75 101.938 47.9375 101.438 47.9375 100.875C47.9375 100.312 47.75 99.8125 47.375 99.4375ZM29 119C27.3125 119 26 117.688 26 116C26 114.375 27.3125 113 29 113C30.625 113 32 114.375 32 116C32 117.688 30.625 119 29 119Z" fill="#2A7AE4"/>
<path d="M25.68 144.576H22.048V154H19.856V144.576H16.224V142.64H25.68V144.576ZM29.1761 154.16C28.2588 154.16 27.4695 153.963 26.8081 153.568C26.1575 153.163 25.6561 152.629 25.3041 151.968C24.9521 151.307 24.7761 150.592 24.7761 149.824C24.7761 149.045 24.9521 148.325 25.3041 147.664C25.6668 147.003 26.1735 146.475 26.8241 146.08C27.4855 145.675 28.2695 145.472 29.1761 145.472C30.0828 145.472 30.8615 145.675 31.5121 146.08C32.1735 146.475 32.6801 147.003 33.0321 147.664C33.3841 148.325 33.5601 149.045 33.5601 149.824C33.5601 150.592 33.3841 151.307 33.0321 151.968C32.6801 152.629 32.1735 153.163 31.5121 153.568C30.8615 153.963 30.0828 154.16 29.1761 154.16ZM26.9841 149.824C26.9841 150.315 27.0801 150.752 27.2721 151.136C27.4641 151.509 27.7255 151.803 28.0561 152.016C28.3868 152.229 28.7601 152.336 29.1761 152.336C29.5815 152.336 29.9495 152.229 30.2801 152.016C30.6108 151.792 30.8721 151.493 31.0641 151.12C31.2668 150.736 31.3681 150.299 31.3681 149.808C31.3681 149.328 31.2668 148.901 31.0641 148.528C30.8721 148.144 30.6108 147.845 30.2801 147.632C29.9495 147.408 29.5815 147.296 29.1761 147.296C28.7601 147.296 28.3868 147.408 28.0561 147.632C27.7255 147.845 27.4641 148.144 27.2721 148.528C27.0801 148.901 26.9841 149.333 26.9841 149.824ZM38.9113 154.16C38.0046 154.16 37.2206 153.957 36.5593 153.552C35.8979 153.147 35.3859 152.613 35.0233 151.952C34.6606 151.291 34.4793 150.576 34.4793 149.808C34.4793 149.029 34.6553 148.309 35.0073 147.648C35.3699 146.987 35.8819 146.459 36.5433 146.064C37.2046 145.669 37.9886 145.472 38.8953 145.472C39.8126 145.472 40.5913 145.669 41.2313 146.064C41.8819 146.459 42.3673 146.976 42.6873 147.616L40.5913 148.256C40.2179 147.616 39.6473 147.296 38.8793 147.296C38.4633 147.296 38.0899 147.403 37.7593 147.616C37.4286 147.819 37.1673 148.112 36.9753 148.496C36.7833 148.869 36.6873 149.307 36.6873 149.808C36.6873 150.299 36.7833 150.736 36.9753 151.12C37.1779 151.493 37.4446 151.792 37.7753 152.016C38.1059 152.229 38.4739 152.336 38.8793 152.336C39.2633 152.336 39.6153 152.245 39.9353 152.064C40.2659 151.872 40.4953 151.632 40.6233 151.344L42.7193 151.984C42.4313 152.613 41.9513 153.136 41.2793 153.552C40.6179 153.957 39.8286 154.16 38.9113 154.16ZM43.4625 151.52C43.4625 150.976 43.6118 150.501 43.9105 150.096C44.2198 149.68 44.6465 149.36 45.1905 149.136C45.7345 148.912 46.3585 148.8 47.0625 148.8C47.4145 148.8 47.7718 148.832 48.1345 148.896C48.4972 148.949 48.8118 149.029 49.0785 149.136V148.688C49.0785 148.155 48.9185 147.744 48.5985 147.456C48.2892 147.168 47.8252 147.024 47.2065 147.024C46.7478 147.024 46.3105 147.104 45.8945 147.264C45.4785 147.424 45.0412 147.659 44.5825 147.968L43.8945 146.56C44.4492 146.197 45.0145 145.925 45.5905 145.744C46.1772 145.563 46.7905 145.472 47.4305 145.472C48.6252 145.472 49.5532 145.771 50.2145 146.368C50.8865 146.965 51.2225 147.819 51.2225 148.928V151.6C51.2225 151.835 51.2598 152 51.3345 152.096C51.4092 152.181 51.5425 152.235 51.7345 152.256V154C51.5425 154.043 51.3665 154.069 51.2065 154.08C51.0572 154.101 50.9292 154.112 50.8225 154.112C50.3958 154.112 50.0705 154.016 49.8465 153.824C49.6225 153.632 49.4892 153.397 49.4465 153.12L49.3985 152.688C49.0252 153.168 48.5665 153.536 48.0225 153.792C47.4892 154.037 46.9398 154.16 46.3745 154.16C45.8092 154.16 45.3078 154.048 44.8705 153.824C44.4332 153.589 44.0865 153.275 43.8305 152.88C43.5852 152.475 43.4625 152.021 43.4625 151.52ZM48.6785 151.952C48.9452 151.696 49.0785 151.451 49.0785 151.216V150.368C48.5238 150.144 47.9638 150.032 47.3985 150.032C46.8332 150.032 46.3745 150.155 46.0225 150.4C45.6705 150.635 45.4945 150.949 45.4945 151.344C45.4945 151.664 45.6225 151.952 45.8785 152.208C46.1345 152.464 46.5025 152.592 46.9825 152.592C47.3025 152.592 47.6118 152.533 47.9105 152.416C48.2198 152.299 48.4758 152.144 48.6785 151.952ZM58.218 147.472C57.5673 147.472 56.986 147.6 56.474 147.856C55.962 148.101 55.594 148.459 55.37 148.928V154H53.226V145.616H55.194V147.408C55.482 146.832 55.8553 146.379 56.314 146.048C56.7833 145.717 57.274 145.536 57.786 145.504C58.01 145.504 58.154 145.509 58.218 145.52V147.472ZM67.6659 154.16C67.0259 154.16 66.4552 154.016 65.9539 153.728C65.4525 153.44 65.0579 153.045 64.7699 152.544V154H62.8979V142.32H65.0419V147.088C65.3405 146.587 65.7299 146.192 66.2099 145.904C66.7005 145.616 67.2712 145.472 67.9219 145.472C68.6472 145.472 69.2819 145.675 69.8259 146.08C70.3805 146.475 70.8125 147.003 71.1219 147.664C71.4312 148.325 71.5859 149.051 71.5859 149.84C71.5859 150.651 71.4152 151.381 71.0739 152.032C70.7325 152.683 70.2632 153.2 69.6659 153.584C69.0792 153.968 68.4125 154.16 67.6659 154.16ZM67.0739 152.336C67.5325 152.336 67.9325 152.224 68.2739 152C68.6259 151.776 68.8979 151.477 69.0899 151.104C69.2925 150.72 69.3939 150.304 69.3939 149.856C69.3939 149.397 69.2979 148.976 69.1059 148.592C68.9245 148.197 68.6685 147.883 68.3379 147.648C68.0072 147.413 67.6285 147.296 67.2019 147.296C66.7325 147.296 66.3005 147.456 65.9059 147.776C65.5219 148.085 65.2339 148.469 65.0419 148.928V150.928C65.1805 151.344 65.4525 151.685 65.8579 151.952C66.2632 152.208 66.6685 152.336 67.0739 152.336ZM72.4625 151.52C72.4625 150.976 72.6118 150.501 72.9105 150.096C73.2198 149.68 73.6465 149.36 74.1905 149.136C74.7345 148.912 75.3585 148.8 76.0625 148.8C76.4145 148.8 76.7718 148.832 77.1345 148.896C77.4972 148.949 77.8118 149.029 78.0785 149.136V148.688C78.0785 148.155 77.9185 147.744 77.5985 147.456C77.2892 147.168 76.8252 147.024 76.2065 147.024C75.7478 147.024 75.3105 147.104 74.8945 147.264C74.4785 147.424 74.0412 147.659 73.5825 147.968L72.8945 146.56C73.4492 146.197 74.0145 145.925 74.5905 145.744C75.1772 145.563 75.7905 145.472 76.4305 145.472C77.6252 145.472 78.5532 145.771 79.2145 146.368C79.8865 146.965 80.2225 147.819 80.2225 148.928V151.6C80.2225 151.835 80.2598 152 80.3345 152.096C80.4092 152.181 80.5425 152.235 80.7345 152.256V154C80.5425 154.043 80.3665 154.069 80.2065 154.08C80.0572 154.101 79.9292 154.112 79.8225 154.112C79.3958 154.112 79.0705 154.016 78.8465 153.824C78.6225 153.632 78.4892 153.397 78.4465 153.12L78.3985 152.688C78.0252 153.168 77.5665 153.536 77.0225 153.792C76.4892 154.037 75.9398 154.16 75.3745 154.16C74.8092 154.16 74.3078 154.048 73.8705 153.824C73.4332 153.589 73.0865 153.275 72.8305 152.88C72.5852 152.475 72.4625 152.021 72.4625 151.52ZM77.6785 151.952C77.9452 151.696 78.0785 151.451 78.0785 151.216V150.368C77.5238 150.144 76.9638 150.032 76.3985 150.032C75.8332 150.032 75.3745 150.155 75.0225 150.4C74.6705 150.635 74.4945 150.949 74.4945 151.344C74.4945 151.664 74.6225 151.952 74.8785 152.208C75.1345 152.464 75.5025 152.592 75.9825 152.592C76.3025 152.592 76.6118 152.533 76.9105 152.416C77.2198 152.299 77.4758 152.144 77.6785 151.952ZM82.306 144.448V142.32H84.45V144.448H82.306ZM81.538 157.136C81.1433 157.136 80.7647 157.072 80.402 156.944C80.0287 156.827 79.698 156.64 79.41 156.384L80.338 154.928C80.466 155.045 80.6153 155.131 80.786 155.184C80.946 155.248 81.1113 155.28 81.282 155.28C81.5593 155.28 81.7993 155.179 82.002 154.976C82.2047 154.784 82.306 154.533 82.306 154.224V145.616H84.45V154.064C84.45 154.672 84.322 155.205 84.066 155.664C83.81 156.123 83.458 156.48 83.01 156.736C82.5727 157.003 82.082 157.136 81.538 157.136ZM90.2699 154.16C89.3525 154.16 88.5632 153.963 87.9019 153.568C87.2512 153.163 86.7499 152.629 86.3979 151.968C86.0459 151.307 85.8699 150.592 85.8699 149.824C85.8699 149.045 86.0459 148.325 86.3979 147.664C86.7605 147.003 87.2672 146.475 87.9179 146.08C88.5792 145.675 89.3632 145.472 90.2699 145.472C91.1765 145.472 91.9552 145.675 92.6059 146.08C93.2672 146.475 93.7739 147.003 94.1259 147.664C94.4779 148.325 94.6539 149.045 94.6539 149.824C94.6539 150.592 94.4779 151.307 94.1259 151.968C93.7739 152.629 93.2672 153.163 92.6059 153.568C91.9552 153.963 91.1765 154.16 90.2699 154.16ZM88.0779 149.824C88.0779 150.315 88.1739 150.752 88.3659 151.136C88.5579 151.509 88.8192 151.803 89.1499 152.016C89.4805 152.229 89.8539 152.336 90.2699 152.336C90.6752 152.336 91.0432 152.229 91.3739 152.016C91.7045 151.792 91.9659 151.493 92.1579 151.12C92.3605 150.736 92.4619 150.299 92.4619 149.808C92.4619 149.328 92.3605 148.901 92.1579 148.528C91.9659 148.144 91.7045 147.845 91.3739 147.632C91.0432 147.408 90.6752 147.296 90.2699 147.296C89.8539 147.296 89.4805 147.408 89.1499 147.632C88.8192 147.845 88.5579 148.144 88.3659 148.528C88.1739 148.901 88.0779 149.333 88.0779 149.824Z" fill="#464646"/>
</svg>
