<svg width="176" height="174" viewBox="0 0 176 174" fill="none" xmlns="http://www.w3.org/2000/svg">
<rect width="176" height="174" fill="white"/>
<rect width="32" height="32" transform="translate(16 99)" fill="white"/>
<path d="M26.8 116.787L30.5733 113.013L21.2133 103.667C19.1333 105.747 19.1333 109.12 21.2133 111.213L26.8 116.787ZM35.84 114.373C37.88 115.32 40.7467 114.653 42.8667 112.533C45.4133 109.987 45.9067 106.333 43.9467 104.373C42 102.427 38.3467 102.907 35.7867 105.453C33.6667 107.573 33 110.44 33.9467 112.48L20.9333 125.493L22.8133 127.373L32 118.213L41.1733 127.387L43.0533 125.507L33.88 116.333L35.84 114.373Z" fill="#2A7AE4"/>
<path d="M16.496 148.24C16.496 147.547 16.6187 146.864 16.864 146.192C17.12 145.52 17.488 144.912 17.968 144.368C18.448 143.824 19.0347 143.392 19.728 143.072C20.4213 142.741 21.2107 142.576 22.096 142.576C23.1307 142.576 24.032 142.805 24.8 143.264C25.568 143.723 26.1387 144.32 26.512 145.056L24.816 146.224C24.624 145.797 24.3733 145.461 24.064 145.216C23.7547 144.971 23.4187 144.795 23.056 144.688C22.704 144.581 22.3627 144.528 22.032 144.528C21.4773 144.528 20.992 144.64 20.576 144.864C20.1707 145.088 19.8293 145.381 19.552 145.744C19.2747 146.107 19.0667 146.512 18.928 146.96C18.8 147.408 18.736 147.856 18.736 148.304C18.736 148.976 18.8747 149.605 19.152 150.192C19.4293 150.768 19.8187 151.237 20.32 151.6C20.8213 151.963 21.4027 152.144 22.064 152.144C22.4053 152.144 22.7573 152.085 23.12 151.968C23.4933 151.851 23.8347 151.664 24.144 151.408C24.4533 151.152 24.6933 150.821 24.864 150.416L26.672 151.456C26.4373 152.021 26.0693 152.501 25.568 152.896C25.0667 153.28 24.5013 153.579 23.872 153.792C23.2427 153.995 22.6187 154.096 22 154.096C21.1893 154.096 20.448 153.931 19.776 153.6C19.1147 153.259 18.5387 152.811 18.048 152.256C17.5573 151.691 17.1733 151.061 16.896 150.368C16.6293 149.664 16.496 148.955 16.496 148.24ZM31.7855 154.16C30.8682 154.16 30.0788 153.963 29.4175 153.568C28.7668 153.163 28.2655 152.629 27.9135 151.968C27.5615 151.307 27.3855 150.592 27.3855 149.824C27.3855 149.045 27.5615 148.325 27.9135 147.664C28.2762 147.003 28.7828 146.475 29.4335 146.08C30.0948 145.675 30.8788 145.472 31.7855 145.472C32.6922 145.472 33.4708 145.675 34.1215 146.08C34.7828 146.475 35.2895 147.003 35.6415 147.664C35.9935 148.325 36.1695 149.045 36.1695 149.824C36.1695 150.592 35.9935 151.307 35.6415 151.968C35.2895 152.629 34.7828 153.163 34.1215 153.568C33.4708 153.963 32.6922 154.16 31.7855 154.16ZM29.5935 149.824C29.5935 150.315 29.6895 150.752 29.8815 151.136C30.0735 151.509 30.3348 151.803 30.6655 152.016C30.9962 152.229 31.3695 152.336 31.7855 152.336C32.1908 152.336 32.5588 152.229 32.8895 152.016C33.2202 151.792 33.4815 151.493 33.6735 151.12C33.8762 150.736 33.9775 150.299 33.9775 149.808C33.9775 149.328 33.8762 148.901 33.6735 148.528C33.4815 148.144 33.2202 147.845 32.8895 147.632C32.5588 147.408 32.1908 147.296 31.7855 147.296C31.3695 147.296 30.9962 147.408 30.6655 147.632C30.3348 147.845 30.0735 148.144 29.8815 148.528C29.6895 148.901 29.5935 149.333 29.5935 149.824ZM41.5206 154.16C40.614 154.16 39.83 153.957 39.1686 153.552C38.5073 153.147 37.9953 152.613 37.6326 151.952C37.27 151.291 37.0886 150.576 37.0886 149.808C37.0886 149.029 37.2646 148.309 37.6166 147.648C37.9793 146.987 38.4913 146.459 39.1526 146.064C39.814 145.669 40.598 145.472 41.5046 145.472C42.422 145.472 43.2006 145.669 43.8406 146.064C44.4913 146.459 44.9766 146.976 45.2966 147.616L43.2006 148.256C42.8273 147.616 42.2566 147.296 41.4886 147.296C41.0726 147.296 40.6993 147.403 40.3686 147.616C40.038 147.819 39.7766 148.112 39.5846 148.496C39.3926 148.869 39.2966 149.307 39.2966 149.808C39.2966 150.299 39.3926 150.736 39.5846 151.12C39.7873 151.493 40.054 151.792 40.3846 152.016C40.7153 152.229 41.0833 152.336 41.4886 152.336C41.8726 152.336 42.2246 152.245 42.5446 152.064C42.8753 151.872 43.1046 151.632 43.2326 151.344L45.3286 151.984C45.0406 152.613 44.5606 153.136 43.8886 153.552C43.2273 153.957 42.438 154.16 41.5206 154.16ZM46.6479 144.448V142.32H48.7919V144.448H46.6479ZM46.6479 154V145.616H48.7919V154H46.6479ZM58.518 154H56.374V149.296C56.374 148.624 56.2567 148.133 56.022 147.824C55.7873 147.515 55.462 147.36 55.046 147.36C54.758 147.36 54.4647 147.435 54.166 147.584C53.878 147.733 53.6167 147.941 53.382 148.208C53.1473 148.464 52.9767 148.763 52.87 149.104V154H50.726V145.616H52.662V147.168C52.9713 146.645 53.4193 146.235 54.006 145.936C54.5927 145.627 55.254 145.472 55.99 145.472C56.5127 145.472 56.9393 145.568 57.27 145.76C57.6007 145.941 57.8567 146.192 58.038 146.512C58.2193 146.821 58.342 147.173 58.406 147.568C58.4807 147.963 58.518 148.363 58.518 148.768V154ZM59.8063 151.52C59.8063 150.976 59.9556 150.501 60.2543 150.096C60.5636 149.68 60.9903 149.36 61.5343 149.136C62.0783 148.912 62.7023 148.8 63.4062 148.8C63.7583 148.8 64.1156 148.832 64.4783 148.896C64.8409 148.949 65.1556 149.029 65.4223 149.136V148.688C65.4223 148.155 65.2623 147.744 64.9423 147.456C64.6329 147.168 64.1689 147.024 63.5503 147.024C63.0916 147.024 62.6543 147.104 62.2383 147.264C61.8223 147.424 61.3849 147.659 60.9263 147.968L60.2383 146.56C60.7929 146.197 61.3583 145.925 61.9343 145.744C62.5209 145.563 63.1343 145.472 63.7743 145.472C64.9689 145.472 65.8969 145.771 66.5583 146.368C67.2303 146.965 67.5663 147.819 67.5663 148.928V151.6C67.5663 151.835 67.6036 152 67.6783 152.096C67.7529 152.181 67.8863 152.235 68.0783 152.256V154C67.8863 154.043 67.7103 154.069 67.5503 154.08C67.4009 154.101 67.2729 154.112 67.1663 154.112C66.7396 154.112 66.4143 154.016 66.1903 153.824C65.9663 153.632 65.8329 153.397 65.7903 153.12L65.7423 152.688C65.3689 153.168 64.9103 153.536 64.3663 153.792C63.8329 154.037 63.2836 154.16 62.7183 154.16C62.1529 154.16 61.6516 154.048 61.2143 153.824C60.7769 153.589 60.4303 153.275 60.1743 152.88C59.9289 152.475 59.8063 152.021 59.8063 151.52ZM65.0223 151.952C65.2889 151.696 65.4223 151.451 65.4223 151.216V150.368C64.8676 150.144 64.3076 150.032 63.7423 150.032C63.1769 150.032 62.7183 150.155 62.3663 150.4C62.0143 150.635 61.8383 150.949 61.8383 151.344C61.8383 151.664 61.9663 151.952 62.2223 152.208C62.4783 152.464 62.8463 152.592 63.3263 152.592C63.6463 152.592 63.9556 152.533 64.2543 152.416C64.5636 152.299 64.8196 152.144 65.0223 151.952ZM74.5618 147.472C73.9111 147.472 73.3298 147.6 72.8177 147.856C72.3058 148.101 71.9378 148.459 71.7138 148.928V154H69.5698V145.616H71.5378V147.408C71.8258 146.832 72.1991 146.379 72.6578 146.048C73.1271 145.717 73.6178 145.536 74.1298 145.504C74.3538 145.504 74.4978 145.509 74.5618 145.52V147.472Z" fill="#464646"/>
</svg>
