<svg width="177" height="174" viewBox="0 0 177 174" fill="none" xmlns="http://www.w3.org/2000/svg">
<rect width="176" height="174" transform="translate(0.124939)" fill="white"/>
<g clip-path="url(#clip0_1_98)">
<path d="M31.4255 99.3151H20.2302C18.5947 99.3151 17.2635 100.645 17.2635 102.277V113.231H16.9737C16.3136 113.231 15.7783 113.765 15.7783 114.424V121.663C15.7783 122.323 16.3136 122.857 16.9737 122.857H17.2635V124.184C17.2635 125.818 18.5947 127.146 20.2302 127.146H35.5057C37.1403 127.146 38.4716 125.818 38.4716 124.184V106.326L31.4255 99.3151ZM21.4879 119.819C21.8311 119.819 22.2115 119.745 22.4357 119.656L22.6068 120.542C22.3982 120.646 21.9281 120.758 21.3167 120.758C19.5783 120.758 18.6831 119.678 18.6831 118.248C18.6831 116.535 19.9067 115.582 21.4284 115.582C22.0178 115.582 22.4653 115.701 22.6666 115.805L22.4357 116.706C22.2042 116.609 21.8835 116.52 21.4807 116.52C20.5777 116.52 19.8766 117.064 19.8766 118.181C19.8766 119.186 20.4734 119.819 21.4879 119.819ZM35.5057 125.332H20.2302C19.5969 125.332 19.0812 124.817 19.0812 124.184V122.857H33.3211C33.9813 122.857 34.5166 122.323 34.5166 121.663V114.424C34.5166 113.765 33.9813 113.231 33.3211 113.231H19.0812V102.277C19.0812 101.646 19.5969 101.131 20.2302 101.131L30.7458 101.12V105.001C30.7458 106.135 31.667 107.055 32.8032 107.055L36.6108 107.044L36.6537 124.184C36.6537 124.817 36.1389 125.332 35.5057 125.332ZM24.6087 118.576C23.7731 118.285 23.2283 117.823 23.2283 117.094C23.2283 116.237 23.9444 115.582 25.1307 115.582C25.6975 115.582 26.1158 115.701 26.4137 115.835L26.1603 116.751C25.959 116.654 25.6009 116.512 25.1084 116.512C24.616 116.512 24.3773 116.736 24.3773 116.996C24.3773 117.317 24.6606 117.458 25.3098 117.704C26.1977 118.032 26.6154 118.494 26.6154 119.202C26.6154 120.043 25.9662 120.758 24.5863 120.758C24.0118 120.758 23.4447 120.609 23.1613 120.452L23.3927 119.514C23.6985 119.671 24.1686 119.827 24.6533 119.827C25.1754 119.827 25.4515 119.611 25.4515 119.283C25.4515 118.97 25.2128 118.791 24.6087 118.576ZM28.6392 118.576C27.8037 118.285 27.2588 117.823 27.2588 117.094C27.2588 116.237 27.975 115.582 29.1612 115.582C29.7285 115.582 30.1457 115.701 30.4446 115.835L30.1909 116.751C29.9895 116.654 29.6315 116.512 29.139 116.512C28.6465 116.512 28.4078 116.736 28.4078 116.996C28.4078 117.317 28.6911 117.458 29.3404 117.704C30.2283 118.032 30.6462 118.494 30.6462 119.202C30.6462 120.043 29.997 120.758 28.617 120.758C28.0424 120.758 27.4752 120.609 27.1919 120.452L27.4234 119.514C27.729 119.671 28.1992 119.827 28.6839 119.827C29.206 119.827 29.4821 119.611 29.4821 119.283C29.482 118.97 29.2433 118.791 28.6392 118.576Z" fill="#464646"/>
</g>
<path d="M16.6209 148.24C16.6209 147.547 16.7436 146.864 16.9889 146.192C17.2449 145.509 17.6129 144.901 18.0929 144.368C18.5729 143.835 19.1596 143.403 19.8529 143.072C20.5463 142.741 21.3356 142.576 22.2209 142.576C23.2663 142.576 24.1676 142.805 24.9249 143.264C25.6929 143.723 26.2636 144.32 26.6369 145.056L24.9409 146.224C24.7916 145.904 24.6103 145.637 24.3969 145.424C24.1836 145.2 23.9543 145.024 23.7089 144.896C23.4636 144.768 23.2076 144.677 22.9409 144.624C22.6743 144.56 22.4129 144.528 22.1569 144.528C21.6023 144.528 21.1169 144.64 20.7009 144.864C20.2956 145.088 19.9543 145.381 19.6769 145.744C19.4103 146.096 19.2076 146.501 19.0689 146.96C18.9303 147.408 18.8609 147.856 18.8609 148.304C18.8609 148.805 18.9409 149.291 19.1009 149.76C19.2609 150.219 19.4849 150.624 19.7729 150.976C20.0716 151.328 20.4236 151.611 20.8289 151.824C21.2449 152.037 21.6983 152.144 22.1889 152.144C22.4449 152.144 22.7116 152.112 22.9889 152.048C23.2663 151.984 23.5276 151.883 23.7729 151.744C24.0289 151.605 24.2636 151.429 24.4769 151.216C24.6903 150.992 24.8609 150.725 24.9889 150.416L26.7969 151.456C26.6156 151.883 26.3543 152.261 26.0129 152.592C25.6823 152.912 25.3036 153.184 24.8769 153.408C24.4609 153.632 24.0129 153.803 23.5329 153.92C23.0529 154.037 22.5836 154.096 22.1249 154.096C21.3143 154.096 20.5729 153.925 19.9009 153.584C19.2289 153.243 18.6476 152.8 18.1569 152.256C17.6769 151.701 17.2983 151.077 17.0209 150.384C16.7543 149.68 16.6209 148.965 16.6209 148.24ZM35.0457 145.616C34.971 145.541 34.8324 145.44 34.6297 145.312C34.4377 145.184 34.1977 145.061 33.9097 144.944C33.6324 144.816 33.3284 144.709 32.9977 144.624C32.667 144.539 32.331 144.496 31.9897 144.496C31.3817 144.496 30.9284 144.608 30.6297 144.832C30.331 145.056 30.1817 145.371 30.1817 145.776C30.1817 146.011 30.235 146.208 30.3417 146.368C30.459 146.517 30.6244 146.651 30.8377 146.768C31.051 146.885 31.3177 146.992 31.6377 147.088C31.9684 147.184 32.347 147.285 32.7737 147.392C33.3284 147.541 33.8297 147.701 34.2777 147.872C34.7364 148.043 35.1204 148.256 35.4297 148.512C35.7497 148.768 35.995 149.077 36.1657 149.44C36.3364 149.792 36.4217 150.229 36.4217 150.752C36.4217 151.36 36.3044 151.883 36.0697 152.32C35.8457 152.747 35.5364 153.093 35.1417 153.36C34.7577 153.627 34.3097 153.824 33.7977 153.952C33.2964 154.069 32.7684 154.128 32.2137 154.128C31.3604 154.128 30.5177 154 29.6857 153.744C28.8537 153.488 28.107 153.125 27.4457 152.656L28.4217 150.752C28.5177 150.848 28.6884 150.976 28.9337 151.136C29.1897 151.285 29.4884 151.44 29.8297 151.6C30.171 151.749 30.5497 151.877 30.9657 151.984C31.3817 152.091 31.8084 152.144 32.2457 152.144C33.4617 152.144 34.0697 151.755 34.0697 150.976C34.0697 150.731 34.0004 150.523 33.8617 150.352C33.723 150.181 33.5257 150.032 33.2697 149.904C33.0137 149.776 32.7044 149.659 32.3417 149.552C31.979 149.445 31.5737 149.328 31.1257 149.2C30.5817 149.051 30.107 148.891 29.7017 148.72C29.307 148.539 28.9764 148.331 28.7097 148.096C28.443 147.851 28.2404 147.573 28.1017 147.264C27.9737 146.944 27.9097 146.565 27.9097 146.128C27.9097 145.552 28.0164 145.04 28.2297 144.592C28.443 144.144 28.7364 143.771 29.1097 143.472C29.4937 143.173 29.9364 142.949 30.4377 142.8C30.939 142.64 31.4777 142.56 32.0537 142.56C32.8537 142.56 33.5897 142.688 34.2617 142.944C34.9337 143.189 35.5204 143.483 36.0217 143.824L35.0457 145.616ZM44.8582 145.616C44.7835 145.541 44.6449 145.44 44.4422 145.312C44.2502 145.184 44.0102 145.061 43.7222 144.944C43.4449 144.816 43.1409 144.709 42.8102 144.624C42.4795 144.539 42.1435 144.496 41.8022 144.496C41.1942 144.496 40.7409 144.608 40.4422 144.832C40.1435 145.056 39.9942 145.371 39.9942 145.776C39.9942 146.011 40.0475 146.208 40.1542 146.368C40.2715 146.517 40.4369 146.651 40.6502 146.768C40.8635 146.885 41.1302 146.992 41.4502 147.088C41.7809 147.184 42.1595 147.285 42.5862 147.392C43.1409 147.541 43.6422 147.701 44.0902 147.872C44.5489 148.043 44.9329 148.256 45.2422 148.512C45.5622 148.768 45.8075 149.077 45.9782 149.44C46.1489 149.792 46.2342 150.229 46.2342 150.752C46.2342 151.36 46.1169 151.883 45.8822 152.32C45.6582 152.747 45.3489 153.093 44.9542 153.36C44.5702 153.627 44.1222 153.824 43.6102 153.952C43.1089 154.069 42.5809 154.128 42.0262 154.128C41.1729 154.128 40.3302 154 39.4982 153.744C38.6662 153.488 37.9195 153.125 37.2582 152.656L38.2342 150.752C38.3302 150.848 38.5009 150.976 38.7462 151.136C39.0022 151.285 39.3009 151.44 39.6422 151.6C39.9835 151.749 40.3622 151.877 40.7782 151.984C41.1942 152.091 41.6209 152.144 42.0582 152.144C43.2742 152.144 43.8822 151.755 43.8822 150.976C43.8822 150.731 43.8129 150.523 43.6742 150.352C43.5355 150.181 43.3382 150.032 43.0822 149.904C42.8262 149.776 42.5169 149.659 42.1542 149.552C41.7915 149.445 41.3862 149.328 40.9382 149.2C40.3942 149.051 39.9195 148.891 39.5142 148.72C39.1195 148.539 38.7889 148.331 38.5222 148.096C38.2555 147.851 38.0529 147.573 37.9142 147.264C37.7862 146.944 37.7222 146.565 37.7222 146.128C37.7222 145.552 37.8289 145.04 38.0422 144.592C38.2555 144.144 38.5489 143.771 38.9222 143.472C39.3062 143.173 39.7489 142.949 40.2502 142.8C40.7515 142.64 41.2902 142.56 41.8662 142.56C42.6662 142.56 43.4022 142.688 44.0742 142.944C44.7462 143.189 45.3329 143.483 45.8342 143.824L44.8582 145.616Z" fill="#464646"/>
<defs>
<clipPath id="clip0_1_98">
<rect width="22" height="35.5385" fill="white" transform="translate(16.1249 95.4615)"/>
</clipPath>
</defs>
</svg>
