<svg width="176" height="174" viewBox="0 0 176 174" fill="none" xmlns="http://www.w3.org/2000/svg">
<rect width="176" height="174" fill="white"/>
<path d="M32 119.267C34.3564 119.267 36.2667 117.356 36.2667 115C36.2667 112.644 34.3564 110.733 32 110.733C29.6436 110.733 27.7333 112.644 27.7333 115C27.7333 117.356 29.6436 119.267 32 119.267Z" fill="#2A7AE4"/>
<path d="M28 101.667L25.56 104.333H21.3334C19.8667 104.333 18.6667 105.533 18.6667 107V123C18.6667 124.467 19.8667 125.667 21.3334 125.667H42.6667C44.1334 125.667 45.3334 124.467 45.3334 123V107C45.3334 105.533 44.1334 104.333 42.6667 104.333H38.44L36 101.667H28ZM32 121.667C28.32 121.667 25.3334 118.68 25.3334 115C25.3334 111.32 28.32 108.333 32 108.333C35.68 108.333 38.6667 111.32 38.6667 115C38.6667 118.68 35.68 121.667 32 121.667Z" fill="#2A7AE4"/>
<path d="M25.68 144.576H22.048V154H19.856V144.576H16.224V142.64H25.68V144.576ZM29.1761 154.16C28.2588 154.16 27.4695 153.963 26.8081 153.568C26.1575 153.163 25.6561 152.629 25.3041 151.968C24.9521 151.307 24.7761 150.592 24.7761 149.824C24.7761 149.045 24.9521 148.325 25.3041 147.664C25.6668 147.003 26.1735 146.475 26.8241 146.08C27.4855 145.675 28.2695 145.472 29.1761 145.472C30.0828 145.472 30.8615 145.675 31.5121 146.08C32.1735 146.475 32.6801 147.003 33.0321 147.664C33.3841 148.325 33.5601 149.045 33.5601 149.824C33.5601 150.592 33.3841 151.307 33.0321 151.968C32.6801 152.629 32.1735 153.163 31.5121 153.568C30.8615 153.963 30.0828 154.16 29.1761 154.16ZM26.9841 149.824C26.9841 150.315 27.0801 150.752 27.2721 151.136C27.4641 151.509 27.7255 151.803 28.0561 152.016C28.3868 152.229 28.7601 152.336 29.1761 152.336C29.5815 152.336 29.9495 152.229 30.2801 152.016C30.6108 151.792 30.8721 151.493 31.0641 151.12C31.2668 150.736 31.3681 150.299 31.3681 149.808C31.3681 149.328 31.2668 148.901 31.0641 148.528C30.8721 148.144 30.6108 147.845 30.2801 147.632C29.9495 147.408 29.5815 147.296 29.1761 147.296C28.7601 147.296 28.3868 147.408 28.0561 147.632C27.7255 147.845 27.4641 148.144 27.2721 148.528C27.0801 148.901 26.9841 149.333 26.9841 149.824ZM48.0313 154H45.8873V149.296C45.8873 148.635 45.7699 148.149 45.5353 147.84C45.3113 147.52 44.9966 147.36 44.5913 147.36C44.1646 147.36 43.7646 147.525 43.3913 147.856C43.0179 148.176 42.7513 148.597 42.5913 149.12V154H40.4473V149.296C40.4473 148.624 40.3299 148.133 40.0953 147.824C39.8713 147.515 39.5566 147.36 39.1513 147.36C38.7353 147.36 38.3353 147.52 37.9513 147.84C37.5779 148.16 37.3113 148.581 37.1513 149.104V154H35.0073V145.616H36.9433V147.168C37.2526 146.624 37.6739 146.208 38.2073 145.92C38.7513 145.621 39.3699 145.472 40.0633 145.472C40.7566 145.472 41.2953 145.643 41.6793 145.984C42.0739 146.325 42.3246 146.747 42.4313 147.248C42.7619 146.672 43.1939 146.235 43.7273 145.936C44.2606 145.627 44.8579 145.472 45.5193 145.472C46.0419 145.472 46.4633 145.568 46.7833 145.76C47.1139 145.941 47.3699 146.192 47.5513 146.512C47.7326 146.821 47.8553 147.173 47.9193 147.568C47.9939 147.963 48.0313 148.363 48.0313 148.768V154ZM49.3219 151.52C49.3219 150.976 49.4712 150.501 49.7699 150.096C50.0792 149.68 50.5059 149.36 51.0499 149.136C51.5939 148.912 52.2179 148.8 52.9219 148.8C53.2739 148.8 53.6312 148.832 53.9939 148.896C54.3565 148.949 54.6712 149.029 54.9379 149.136V148.688C54.9379 148.155 54.7779 147.744 54.4579 147.456C54.1485 147.168 53.6845 147.024 53.0659 147.024C52.6072 147.024 52.1699 147.104 51.7539 147.264C51.3379 147.424 50.9005 147.659 50.4419 147.968L49.7539 146.56C50.3085 146.197 50.8739 145.925 51.4499 145.744C52.0365 145.563 52.6499 145.472 53.2899 145.472C54.4845 145.472 55.4125 145.771 56.0739 146.368C56.7459 146.965 57.0819 147.819 57.0819 148.928V151.6C57.0819 151.835 57.1192 152 57.1939 152.096C57.2685 152.181 57.4019 152.235 57.5939 152.256V154C57.4019 154.043 57.2259 154.069 57.0659 154.08C56.9165 154.101 56.7885 154.112 56.6819 154.112C56.2552 154.112 55.9299 154.016 55.7059 153.824C55.4819 153.632 55.3485 153.397 55.3059 153.12L55.2579 152.688C54.8845 153.168 54.4259 153.536 53.8819 153.792C53.3485 154.037 52.7992 154.16 52.2339 154.16C51.6685 154.16 51.1672 154.048 50.7299 153.824C50.2925 153.589 49.9459 153.275 49.6899 152.88C49.4445 152.475 49.3219 152.021 49.3219 151.52ZM54.5379 151.952C54.8045 151.696 54.9379 151.451 54.9379 151.216V150.368C54.3832 150.144 53.8232 150.032 53.2579 150.032C52.6925 150.032 52.2339 150.155 51.8819 150.4C51.5299 150.635 51.3539 150.949 51.3539 151.344C51.3539 151.664 51.4819 151.952 51.7379 152.208C51.9939 152.464 52.3619 152.592 52.8419 152.592C53.1619 152.592 53.4712 152.533 53.7699 152.416C54.0792 152.299 54.3352 152.144 54.5379 151.952ZM64.0774 147.472C63.4267 147.472 62.8454 147.6 62.3334 147.856C61.8214 148.101 61.4534 148.459 61.2294 148.928V154H59.0854V145.616H61.0534V147.408C61.3414 146.832 61.7147 146.379 62.1734 146.048C62.6427 145.717 63.1334 145.536 63.6454 145.504C63.8694 145.504 64.0134 145.509 64.0774 145.52V147.472ZM69.2693 154V147.696H68.1653V146.064H69.2693V145.552C69.2693 144.517 69.5199 143.696 70.0213 143.088C70.5333 142.469 71.2159 142.16 72.0693 142.16C72.7519 142.16 73.4399 142.325 74.1333 142.656L73.7013 144.272C73.5413 144.187 73.3493 144.117 73.1253 144.064C72.9119 144 72.7146 143.968 72.5333 143.968C71.7866 143.968 71.4133 144.469 71.4133 145.472V146.064H73.4613V147.696H71.4133V154H69.2693ZM78.4418 154.16C77.5244 154.16 76.7351 153.963 76.0738 153.568C75.4231 153.163 74.9218 152.629 74.5698 151.968C74.2178 151.307 74.0418 150.592 74.0418 149.824C74.0418 149.045 74.2178 148.325 74.5698 147.664C74.9324 147.003 75.4391 146.475 76.0898 146.08C76.7511 145.675 77.5351 145.472 78.4418 145.472C79.3484 145.472 80.1271 145.675 80.7778 146.08C81.4391 146.475 81.9458 147.003 82.2978 147.664C82.6498 148.325 82.8258 149.045 82.8258 149.824C82.8258 150.592 82.6498 151.307 82.2978 151.968C81.9458 152.629 81.4391 153.163 80.7778 153.568C80.1271 153.963 79.3484 154.16 78.4418 154.16ZM76.2498 149.824C76.2498 150.315 76.3458 150.752 76.5378 151.136C76.7298 151.509 76.9911 151.803 77.3218 152.016C77.6524 152.229 78.0258 152.336 78.4418 152.336C78.8471 152.336 79.2151 152.229 79.5458 152.016C79.8764 151.792 80.1378 151.493 80.3298 151.12C80.5324 150.736 80.6338 150.299 80.6338 149.808C80.6338 149.328 80.5324 148.901 80.3298 148.528C80.1378 148.144 79.8764 147.845 79.5458 147.632C79.2151 147.408 78.8471 147.296 78.4418 147.296C78.0258 147.296 77.6524 147.408 77.3218 147.632C76.9911 147.845 76.7298 148.144 76.5378 148.528C76.3458 148.901 76.2498 149.333 76.2498 149.824ZM89.1719 153.568C88.8839 153.696 88.5265 153.824 88.0999 153.952C87.6839 154.08 87.2519 154.144 86.8039 154.144C86.4092 154.144 86.0465 154.075 85.7159 153.936C85.3852 153.797 85.1185 153.579 84.9159 153.28C84.7239 152.971 84.6279 152.571 84.6279 152.08V147.264H83.5239V145.616H84.6279V142.896H86.7719V145.616H88.5319V147.264H86.7719V151.36C86.7719 151.648 86.8465 151.856 86.9959 151.984C87.1559 152.112 87.3479 152.176 87.5719 152.176C87.7959 152.176 88.0145 152.139 88.2279 152.064C88.4412 151.989 88.6119 151.925 88.7399 151.872L89.1719 153.568ZM94.0511 154.16C93.1338 154.16 92.3445 153.963 91.6831 153.568C91.0325 153.163 90.5311 152.629 90.1791 151.968C89.8271 151.307 89.6511 150.592 89.6511 149.824C89.6511 149.045 89.8271 148.325 90.1791 147.664C90.5418 147.003 91.0485 146.475 91.6991 146.08C92.3605 145.675 93.1445 145.472 94.0511 145.472C94.9578 145.472 95.7365 145.675 96.3871 146.08C97.0485 146.475 97.5551 147.003 97.9071 147.664C98.2591 148.325 98.4351 149.045 98.4351 149.824C98.4351 150.592 98.2591 151.307 97.9071 151.968C97.5551 152.629 97.0485 153.163 96.3871 153.568C95.7365 153.963 94.9578 154.16 94.0511 154.16ZM91.8591 149.824C91.8591 150.315 91.9551 150.752 92.1471 151.136C92.3391 151.509 92.6005 151.803 92.9311 152.016C93.2618 152.229 93.6351 152.336 94.0511 152.336C94.4565 152.336 94.8245 152.229 95.1551 152.016C95.4858 151.792 95.7471 151.493 95.9391 151.12C96.1418 150.736 96.2431 150.299 96.2431 149.808C96.2431 149.328 96.1418 148.901 95.9391 148.528C95.7471 148.144 95.4858 147.845 95.1551 147.632C94.8245 147.408 94.4565 147.296 94.0511 147.296C93.6351 147.296 93.2618 147.408 92.9311 147.632C92.6005 147.845 92.3391 148.144 92.1471 148.528C91.9551 148.901 91.8591 149.333 91.8591 149.824ZM102.97 154.16C102.256 154.16 101.573 154.043 100.922 153.808C100.272 153.573 99.7116 153.227 99.2423 152.768L100.01 151.376C100.512 151.781 101.002 152.08 101.482 152.272C101.962 152.464 102.432 152.56 102.89 152.56C103.306 152.56 103.637 152.485 103.882 152.336C104.138 152.187 104.266 151.963 104.266 151.664C104.266 151.355 104.112 151.147 103.802 151.04C103.493 150.923 103.061 150.779 102.506 150.608C101.888 150.416 101.37 150.219 100.954 150.016C100.538 149.813 100.224 149.568 100.01 149.28C99.8076 148.992 99.7063 148.619 99.7063 148.16C99.7063 147.339 100.016 146.683 100.634 146.192C101.253 145.701 102.074 145.456 103.098 145.456C103.696 145.456 104.261 145.552 104.794 145.744C105.328 145.925 105.813 146.224 106.25 146.64L105.386 148C104.565 147.36 103.77 147.04 103.002 147.04C102.661 147.04 102.357 147.104 102.09 147.232C101.834 147.36 101.706 147.584 101.706 147.904C101.706 148.203 101.829 148.416 102.074 148.544C102.33 148.672 102.714 148.811 103.226 148.96C103.888 149.163 104.448 149.36 104.906 149.552C105.376 149.744 105.728 149.989 105.962 150.288C106.208 150.587 106.33 150.992 106.33 151.504C106.33 152.336 106.026 152.987 105.418 153.456C104.81 153.925 103.994 154.16 102.97 154.16Z" fill="#464646"/>
</svg>
