<svg width="176" height="174" viewBox="0 0 176 174" fill="none" xmlns="http://www.w3.org/2000/svg">
<rect width="176" height="174" fill="white"/>
<rect width="32" height="32" transform="translate(16 99)" fill="white"/>
<path d="M32 103C25.3733 103 20 108.373 20 115V124.333C20 125.8 21.2 127 22.6667 127H28V116.333H22.6667V115C22.6667 109.84 26.84 105.667 32 105.667C37.16 105.667 41.3333 109.84 41.3333 115V116.333H36V127H41.3333C42.8 127 44 125.8 44 124.333V115C44 108.373 38.6267 103 32 103Z" fill="#2A7AE4"/>
<path d="M22.032 154.08C21.2 154.08 20.4427 153.92 19.76 153.6C19.088 153.28 18.5067 152.848 18.016 152.304C17.536 151.749 17.1627 151.131 16.896 150.448C16.6293 149.755 16.496 149.045 16.496 148.32C16.496 147.563 16.6347 146.843 16.912 146.16C17.1893 145.467 17.5787 144.853 18.08 144.32C18.5813 143.776 19.168 143.349 19.84 143.04C20.5227 142.72 21.2693 142.56 22.08 142.56C22.9013 142.56 23.648 142.725 24.32 143.056C25.0027 143.387 25.584 143.829 26.064 144.384C26.5547 144.939 26.928 145.563 27.184 146.256C27.4507 146.939 27.584 147.637 27.584 148.352C27.584 149.099 27.4453 149.819 27.168 150.512C26.8907 151.195 26.5013 151.808 26 152.352C25.5093 152.885 24.9227 153.307 24.24 153.616C23.568 153.925 22.832 154.08 22.032 154.08ZM18.736 148.32C18.736 148.981 18.864 149.6 19.12 150.176C19.3867 150.752 19.7653 151.221 20.256 151.584C20.7573 151.947 21.3547 152.128 22.048 152.128C22.7627 152.128 23.3653 151.941 23.856 151.568C24.3467 151.195 24.72 150.715 24.976 150.128C25.232 149.541 25.36 148.939 25.36 148.32C25.36 147.659 25.2267 147.04 24.96 146.464C24.6933 145.888 24.3093 145.424 23.808 145.072C23.3173 144.709 22.7307 144.528 22.048 144.528C21.3333 144.528 20.7307 144.715 20.24 145.088C19.7493 145.461 19.376 145.941 19.12 146.528C18.864 147.104 18.736 147.701 18.736 148.32ZM29.0385 154V145.616H31.1825V154H29.0385ZM30.8145 144.64L29.4385 144.224L30.3025 142.32H32.3025L30.8145 144.64ZM38.1086 147.472C37.458 147.472 36.8766 147.6 36.3646 147.856C35.8526 148.101 35.4846 148.459 35.2606 148.928V154H33.1166V145.616H35.0846V147.408C35.3726 146.832 35.746 146.379 36.2046 146.048C36.674 145.717 37.1646 145.536 37.6766 145.504C37.9006 145.504 38.0446 145.509 38.1086 145.52V147.472ZM55.8125 154H53.6685V149.296C53.6685 148.635 53.5512 148.149 53.3165 147.84C53.0925 147.52 52.7778 147.36 52.3725 147.36C51.9458 147.36 51.5458 147.525 51.1725 147.856C50.7992 148.176 50.5325 148.597 50.3725 149.12V154H48.2285V149.296C48.2285 148.624 48.1112 148.133 47.8765 147.824C47.6525 147.515 47.3378 147.36 46.9325 147.36C46.5165 147.36 46.1165 147.52 45.7325 147.84C45.3592 148.16 45.0925 148.581 44.9325 149.104V154H42.7885V145.616H44.7245V147.168C45.0338 146.624 45.4552 146.208 45.9885 145.92C46.5325 145.621 47.1512 145.472 47.8445 145.472C48.5378 145.472 49.0765 145.643 49.4605 145.984C49.8552 146.325 50.1058 146.747 50.2125 147.248C50.5432 146.672 50.9752 146.235 51.5085 145.936C52.0418 145.627 52.6392 145.472 53.3005 145.472C53.8232 145.472 54.2445 145.568 54.5645 145.76C54.8952 145.941 55.1512 146.192 55.3325 146.512C55.5138 146.821 55.6365 147.173 55.7005 147.568C55.7752 147.963 55.8125 148.363 55.8125 148.768V154ZM57.5991 150.864V145.616H59.7431V150.4C59.7431 151.691 60.2071 152.336 61.1351 152.336C61.5511 152.336 61.9511 152.213 62.3351 151.968C62.7298 151.712 63.0498 151.328 63.2951 150.816V145.616H65.4391V151.6C65.4391 151.835 65.4765 152 65.5511 152.096C65.6258 152.181 65.7591 152.235 65.9511 152.256V154C65.7378 154.043 65.5565 154.069 65.4071 154.08C65.2685 154.091 65.1405 154.096 65.0231 154.096C64.6391 154.096 64.3245 154.011 64.0791 153.84C63.8445 153.659 63.7058 153.413 63.6631 153.104L63.6151 152.432C63.2418 153.008 62.7618 153.44 62.1751 153.728C61.5885 154.016 60.9431 154.16 60.2391 154.16C59.3751 154.16 58.7191 153.883 58.2711 153.328C57.8231 152.763 57.5991 151.941 57.5991 150.864ZM62.2231 144.64L60.8471 144.224L61.7111 142.32H63.7111L62.2231 144.64ZM70.6578 154.16C69.9431 154.16 69.2604 154.043 68.6098 153.808C67.9591 153.573 67.3991 153.227 66.9298 152.768L67.6978 151.376C68.1991 151.781 68.6898 152.08 69.1698 152.272C69.6498 152.464 70.1191 152.56 70.5778 152.56C70.9938 152.56 71.3244 152.485 71.5698 152.336C71.8258 152.187 71.9538 151.963 71.9538 151.664C71.9538 151.355 71.7991 151.147 71.4898 151.04C71.1804 150.923 70.7484 150.779 70.1938 150.608C69.5751 150.416 69.0578 150.219 68.6418 150.016C68.2258 149.813 67.9111 149.568 67.6978 149.28C67.4951 148.992 67.3938 148.619 67.3938 148.16C67.3938 147.339 67.7031 146.683 68.3218 146.192C68.9404 145.701 69.7618 145.456 70.7858 145.456C71.3831 145.456 71.9484 145.552 72.4818 145.744C73.0151 145.925 73.5004 146.224 73.9378 146.64L73.0738 148C72.2524 147.36 71.4578 147.04 70.6898 147.04C70.3484 147.04 70.0444 147.104 69.7778 147.232C69.5218 147.36 69.3938 147.584 69.3938 147.904C69.3938 148.203 69.5164 148.416 69.7618 148.544C70.0178 148.672 70.4018 148.811 70.9138 148.96C71.5751 149.163 72.1351 149.36 72.5938 149.552C73.0631 149.744 73.4151 149.989 73.6498 150.288C73.8951 150.587 74.0178 150.992 74.0178 151.504C74.0178 152.336 73.7138 152.987 73.1058 153.456C72.4978 153.925 71.6818 154.16 70.6578 154.16ZM75.476 144.448V142.32H77.62V144.448H75.476ZM75.476 154V145.616H77.62V154H75.476ZM83.4581 154.16C82.5515 154.16 81.7675 153.957 81.1061 153.552C80.4448 153.147 79.9328 152.613 79.5701 151.952C79.2075 151.291 79.0261 150.576 79.0261 149.808C79.0261 149.029 79.2021 148.309 79.5541 147.648C79.9168 146.987 80.4288 146.459 81.0901 146.064C81.7515 145.669 82.5355 145.472 83.4421 145.472C84.3595 145.472 85.1381 145.669 85.7781 146.064C86.4288 146.459 86.9141 146.976 87.2341 147.616L85.1381 148.256C84.7648 147.616 84.1941 147.296 83.4261 147.296C83.0101 147.296 82.6368 147.403 82.3061 147.616C81.9755 147.819 81.7141 148.112 81.5221 148.496C81.3301 148.869 81.2341 149.307 81.2341 149.808C81.2341 150.299 81.3301 150.736 81.5221 151.12C81.7248 151.493 81.9915 151.792 82.3221 152.016C82.6528 152.229 83.0208 152.336 83.4261 152.336C83.8101 152.336 84.1621 152.245 84.4821 152.064C84.8128 151.872 85.0421 151.632 85.1701 151.344L87.2661 151.984C86.9781 152.613 86.4981 153.136 85.8261 153.552C85.1648 153.957 84.3755 154.16 83.4581 154.16ZM88.0094 151.52C88.0094 150.976 88.1587 150.501 88.4574 150.096C88.7667 149.68 89.1934 149.36 89.7374 149.136C90.2814 148.912 90.9054 148.8 91.6094 148.8C91.9614 148.8 92.3187 148.832 92.6814 148.896C93.044 148.949 93.3587 149.029 93.6254 149.136V148.688C93.6254 148.155 93.4654 147.744 93.1454 147.456C92.836 147.168 92.372 147.024 91.7534 147.024C91.2947 147.024 90.8574 147.104 90.4414 147.264C90.0254 147.424 89.588 147.659 89.1294 147.968L88.4414 146.56C88.996 146.197 89.5614 145.925 90.1374 145.744C90.724 145.563 91.3374 145.472 91.9774 145.472C93.172 145.472 94.1 145.771 94.7614 146.368C95.4334 146.965 95.7694 147.819 95.7694 148.928V151.6C95.7694 151.835 95.8067 152 95.8814 152.096C95.956 152.181 96.0894 152.235 96.2814 152.256V154C96.0894 154.043 95.9134 154.069 95.7534 154.08C95.604 154.101 95.476 154.112 95.3694 154.112C94.9427 154.112 94.6174 154.016 94.3934 153.824C94.1694 153.632 94.036 153.397 93.9934 153.12L93.9454 152.688C93.572 153.168 93.1134 153.536 92.5694 153.792C92.036 154.037 91.4867 154.16 90.9214 154.16C90.356 154.16 89.8547 154.048 89.4174 153.824C88.98 153.589 88.6334 153.275 88.3774 152.88C88.132 152.475 88.0094 152.021 88.0094 151.52ZM93.2254 151.952C93.492 151.696 93.6254 151.451 93.6254 151.216V150.368C93.0707 150.144 92.5107 150.032 91.9454 150.032C91.38 150.032 90.9214 150.155 90.5694 150.4C90.2174 150.635 90.0414 150.949 90.0414 151.344C90.0414 151.664 90.1694 151.952 90.4254 152.208C90.6814 152.464 91.0494 152.592 91.5294 152.592C91.8494 152.592 92.1587 152.533 92.4574 152.416C92.7667 152.299 93.0227 152.144 93.2254 151.952Z" fill="#464646"/>
</svg>
