<svg width="177" height="174" viewBox="0 0 177 174" fill="none" xmlns="http://www.w3.org/2000/svg">
<rect width="176" height="174" transform="translate(0.875061)" fill="white"/>
<path d="M16.8751 99L19.0001 123.75L28.8126 127L38.6876 123.75L40.8751 99H16.8751ZM36.1251 107H24.6251L24.8751 110.125H35.8751L35.0001 119.375L28.8751 121.062H28.8126L22.6251 119.375L22.2501 114.625H25.2501L25.5001 117L28.8126 117.938L32.1876 117L32.5626 113.125H22.1251L21.3126 104.062H36.3751L36.1251 107Z" fill="#464646"/>
<path d="M27.6111 142.64V154H25.4191V149.152H20.2671V154H18.0591V142.64H20.2671V147.232H25.4191V142.64H27.6111ZM34.7969 153.568C34.5089 153.696 34.1569 153.824 33.7409 153.952C33.3249 154.08 32.8876 154.144 32.4289 154.144C32.1303 154.144 31.8476 154.107 31.5809 154.032C31.3249 153.957 31.0956 153.84 30.8929 153.68C30.7009 153.509 30.5463 153.296 30.4289 153.04C30.3116 152.773 30.2529 152.453 30.2529 152.08V147.264H29.1489V145.616H30.2529V142.896H32.3969V145.616H34.1569V147.264H32.3969V151.36C32.3969 151.659 32.4716 151.872 32.6209 152C32.7809 152.117 32.9729 152.176 33.1969 152.176C33.4209 152.176 33.6396 152.139 33.8529 152.064C34.0663 151.989 34.2369 151.925 34.3649 151.872L34.7969 153.568ZM48.9376 154H46.7936V149.296C46.7936 148.624 46.6762 148.133 46.4416 147.824C46.2176 147.515 45.9029 147.36 45.4976 147.36C45.0709 147.36 44.6709 147.525 44.2976 147.856C43.9242 148.176 43.6576 148.597 43.4976 149.12V154H41.3536V149.296C41.3536 148.624 41.2362 148.133 41.0016 147.824C40.7776 147.515 40.4629 147.36 40.0576 147.36C39.6416 147.36 39.2416 147.52 38.8576 147.84C38.4842 148.16 38.2176 148.581 38.0576 149.104V154H35.9136V145.616H37.8496V147.168C38.1589 146.624 38.5802 146.208 39.1136 145.92C39.6576 145.621 40.2762 145.472 40.9696 145.472C41.6736 145.472 42.2176 145.643 42.6016 145.984C42.9856 146.325 43.2309 146.747 43.3376 147.248C43.6789 146.672 44.1109 146.235 44.6336 145.936C45.1562 145.627 45.7536 145.472 46.4256 145.472C46.9376 145.472 47.3589 145.568 47.6896 145.76C48.0202 145.952 48.2762 146.203 48.4576 146.512C48.6389 146.821 48.7616 147.173 48.8256 147.568C48.9002 147.963 48.9376 148.363 48.9376 148.768V154ZM50.7882 142.32H52.9322V151.312C52.9322 151.621 53.0069 151.861 53.1562 152.032C53.3055 152.203 53.5189 152.288 53.7962 152.288C53.9242 152.288 54.0629 152.267 54.2122 152.224C54.3722 152.181 54.5215 152.128 54.6602 152.064L54.9482 153.696C54.6602 153.835 54.3242 153.941 53.9402 154.016C53.5562 154.091 53.2095 154.128 52.9002 154.128C52.2282 154.128 51.7055 153.952 51.3322 153.6C50.9695 153.237 50.7882 152.725 50.7882 152.064V142.32ZM62.8901 148.896C63.4234 148.896 63.9194 148.987 64.3781 149.168C64.8367 149.339 65.2314 149.584 65.5621 149.904C65.8927 150.224 66.1487 150.608 66.3301 151.056C66.5221 151.504 66.6181 152 66.6181 152.544C66.6181 153.12 66.5114 153.643 66.2981 154.112C66.0954 154.581 65.8074 154.981 65.4341 155.312C65.0607 155.653 64.6181 155.915 64.1061 156.096C63.5941 156.288 63.0394 156.384 62.4421 156.384C61.6101 156.384 60.8634 156.208 60.2021 155.856C59.5514 155.504 59.0554 155.024 58.7141 154.416L59.9461 153.136C60.2447 153.552 60.6181 153.883 61.0661 154.128C61.5141 154.373 61.9781 154.496 62.4581 154.496C63.0341 154.496 63.5034 154.325 63.8661 153.984C64.2394 153.632 64.4261 153.168 64.4261 152.592C64.4261 152.037 64.2501 151.589 63.8981 151.248C63.5567 150.907 63.1194 150.736 62.5861 150.736C62.2341 150.736 61.9034 150.816 61.5941 150.976C61.2954 151.136 61.0554 151.355 60.8741 151.632H59.0021C59.0021 151.6 59.0234 151.483 59.0661 151.28C59.1087 151.067 59.1621 150.8 59.2261 150.48C59.2901 150.149 59.3594 149.787 59.4341 149.392C59.5087 148.987 59.5887 148.576 59.6741 148.16C59.8661 147.179 60.0794 146.08 60.3141 144.864H65.9141V146.816H61.8661L61.4021 149.36C61.5301 149.221 61.7167 149.109 61.9621 149.024C62.2181 148.939 62.5274 148.896 62.8901 148.896Z" fill="#464646"/>
</svg>
