<svg width="177" height="174" viewBox="0 0 177 174" fill="none" xmlns="http://www.w3.org/2000/svg">
<rect width="176" height="174" transform="translate(0.875061)" fill="white"/>
<path d="M41.8751 99H19.8751C18.1876 99 16.8751 100.375 16.8751 102V124C16.8751 125.688 18.1876 127 19.8751 127H41.8751C43.5001 127 44.8751 125.688 44.8751 124V102C44.8751 100.375 43.5001 99 41.8751 99ZM32.0626 120.875C32.0626 123.562 30.5001 124.812 28.1251 124.812C26.0626 124.812 24.8126 123.75 24.1876 122.438L26.3751 121.125C26.7501 121.875 27.1251 122.5 28.0626 122.5C28.8751 122.5 29.4376 122.125 29.4376 120.812V111.875H32.0626V120.875ZM38.3126 124.812C35.8751 124.812 34.3126 123.688 33.5001 122.125L35.6876 120.938C36.2501 121.812 36.9376 122.5 38.2501 122.5C39.3126 122.5 40.0626 121.938 40.0626 121.188C40.0626 120.312 39.3126 120 38.1251 119.438L37.4376 119.188C35.5626 118.375 34.3126 117.375 34.3126 115.188C34.3126 113.25 35.8126 111.75 38.1876 111.75C39.8126 111.75 41.0626 112.312 41.8751 113.812L39.8751 115.125C39.3751 114.375 38.9376 114 38.1251 114C37.3751 114 36.8751 114.5 36.8751 115.125C36.8751 115.938 37.3751 116.25 38.5001 116.75L39.1876 117.062C41.4376 118 42.6876 119 42.6876 121.188C42.6876 123.562 40.8126 124.812 38.3126 124.812Z" fill="#464646"/>
<path d="M17.4831 151.68C17.6324 151.787 17.8831 151.904 18.2351 152.032C18.5871 152.16 18.9924 152.224 19.4511 152.224C19.8991 152.224 20.2564 152.149 20.5231 152C20.7897 151.84 20.9924 151.6 21.1311 151.28C21.2697 150.96 21.3604 150.565 21.4031 150.096C21.4457 149.616 21.4671 149.056 21.4671 148.416V142.64H23.6751V148.416C23.6751 149.28 23.6271 150.069 23.5311 150.784C23.4457 151.488 23.2537 152.091 22.9551 152.592C22.6671 153.093 22.2457 153.483 21.6911 153.76C21.1364 154.037 20.3897 154.176 19.4511 154.176C18.4911 154.176 17.6697 153.941 16.9871 153.472L17.4831 151.68ZM27.8891 154.16C27.4837 154.16 27.1051 154.096 26.7531 153.968C26.4011 153.829 26.0971 153.643 25.8411 153.408C25.5851 153.163 25.3824 152.88 25.2331 152.56C25.0944 152.24 25.0251 151.888 25.0251 151.504C25.0251 151.109 25.1104 150.747 25.2811 150.416C25.4624 150.075 25.7077 149.787 26.0171 149.552C26.3371 149.317 26.7157 149.136 27.1531 149.008C27.5904 148.869 28.0704 148.8 28.5931 148.8C28.9664 148.8 29.3291 148.832 29.6811 148.896C30.0437 148.96 30.3637 149.051 30.6411 149.168V148.688C30.6411 148.133 30.4811 147.707 30.1611 147.408C29.8517 147.109 29.3877 146.96 28.7691 146.96C28.3211 146.96 27.8837 147.04 27.4571 147.2C27.0304 147.36 26.5931 147.595 26.1451 147.904L25.4891 146.544C26.5664 145.829 27.7291 145.472 28.9771 145.472C30.1824 145.472 31.1157 145.771 31.7771 146.368C32.4491 146.955 32.7851 147.808 32.7851 148.928V151.536C32.7851 151.76 32.8224 151.92 32.8971 152.016C32.9824 152.112 33.1157 152.165 33.2971 152.176V154C32.9344 154.075 32.6197 154.112 32.3531 154.112C31.9477 154.112 31.6331 154.021 31.4091 153.84C31.1957 153.659 31.0624 153.419 31.0091 153.12L30.9611 152.656C30.5877 153.147 30.1344 153.52 29.6011 153.776C29.0677 154.032 28.4971 154.16 27.8891 154.16ZM28.4971 152.592C28.8597 152.592 29.2011 152.528 29.5211 152.4C29.8517 152.272 30.1077 152.101 30.2891 151.888C30.5237 151.707 30.6411 151.504 30.6411 151.28V150.32C30.3851 150.224 30.1077 150.149 29.8091 150.096C29.5104 150.032 29.2224 150 28.9451 150C28.3904 150 27.9371 150.128 27.5851 150.384C27.2331 150.629 27.0571 150.944 27.0571 151.328C27.0571 151.691 27.1957 151.995 27.4731 152.24C27.7504 152.475 28.0917 152.592 28.4971 152.592ZM36.8258 154L33.7378 145.616H35.9458L38.0738 152.256L40.2178 145.616H42.2338L39.1458 154H36.8258ZM45.4359 154.16C45.0306 154.16 44.6519 154.096 44.2999 153.968C43.9479 153.829 43.6439 153.643 43.3879 153.408C43.1319 153.163 42.9293 152.88 42.7799 152.56C42.6413 152.24 42.5719 151.888 42.5719 151.504C42.5719 151.109 42.6573 150.747 42.8279 150.416C43.0093 150.075 43.2546 149.787 43.5639 149.552C43.8839 149.317 44.2626 149.136 44.6999 149.008C45.1373 148.869 45.6173 148.8 46.1399 148.8C46.5133 148.8 46.8759 148.832 47.2279 148.896C47.5906 148.96 47.9106 149.051 48.1879 149.168V148.688C48.1879 148.133 48.0279 147.707 47.7079 147.408C47.3986 147.109 46.9346 146.96 46.3159 146.96C45.8679 146.96 45.4306 147.04 45.0039 147.2C44.5773 147.36 44.1399 147.595 43.6919 147.904L43.0359 146.544C44.1133 145.829 45.2759 145.472 46.5239 145.472C47.7293 145.472 48.6626 145.771 49.3239 146.368C49.9959 146.955 50.3319 147.808 50.3319 148.928V151.536C50.3319 151.76 50.3693 151.92 50.4439 152.016C50.5293 152.112 50.6626 152.165 50.8439 152.176V154C50.4813 154.075 50.1666 154.112 49.8999 154.112C49.4946 154.112 49.1799 154.021 48.9559 153.84C48.7426 153.659 48.6093 153.419 48.5559 153.12L48.5079 152.656C48.1346 153.147 47.6813 153.52 47.1479 153.776C46.6146 154.032 46.0439 154.16 45.4359 154.16ZM46.0439 152.592C46.4066 152.592 46.7479 152.528 47.0679 152.4C47.3986 152.272 47.6546 152.101 47.8359 151.888C48.0706 151.707 48.1879 151.504 48.1879 151.28V150.32C47.9319 150.224 47.6546 150.149 47.3559 150.096C47.0573 150.032 46.7693 150 46.4919 150C45.9373 150 45.4839 150.128 45.1319 150.384C44.7799 150.629 44.6039 150.944 44.6039 151.328C44.6039 151.691 44.7426 151.995 45.0199 152.24C45.2973 152.475 45.6386 152.592 46.0439 152.592ZM55.5034 154.16C54.7994 154.16 54.1114 154.048 53.4394 153.824C52.7674 153.6 52.1914 153.28 51.7114 152.864L52.5114 151.52C53.0234 151.883 53.5194 152.16 53.9994 152.352C54.4901 152.533 54.9754 152.624 55.4554 152.624C55.8821 152.624 56.2181 152.544 56.4634 152.384C56.7088 152.224 56.8314 151.995 56.8314 151.696C56.8314 151.397 56.6874 151.179 56.3994 151.04C56.1114 150.901 55.6421 150.741 54.9914 150.56C54.4474 150.411 53.9834 150.267 53.5994 150.128C53.2154 149.989 52.9061 149.835 52.6714 149.664C52.4368 149.483 52.2661 149.28 52.1594 149.056C52.0528 148.821 51.9994 148.544 51.9994 148.224C51.9994 147.797 52.0794 147.413 52.2394 147.072C52.4101 146.731 52.6448 146.443 52.9434 146.208C53.2421 145.963 53.5888 145.776 53.9834 145.648C54.3888 145.52 54.8261 145.456 55.2954 145.456C55.9248 145.456 56.5114 145.547 57.0554 145.728C57.6101 145.909 58.1168 146.203 58.5754 146.608L57.7114 147.904C57.2848 147.584 56.8688 147.349 56.4634 147.2C56.0688 147.051 55.6741 146.976 55.2794 146.976C54.9168 146.976 54.6128 147.051 54.3674 147.2C54.1221 147.349 53.9994 147.589 53.9994 147.92C53.9994 148.069 54.0261 148.192 54.0794 148.288C54.1434 148.384 54.2394 148.469 54.3674 148.544C54.4954 148.619 54.6608 148.693 54.8634 148.768C55.0768 148.832 55.3381 148.901 55.6474 148.976C56.2234 149.125 56.7141 149.275 57.1194 149.424C57.5354 149.573 57.8714 149.744 58.1274 149.936C58.3941 150.128 58.5861 150.352 58.7034 150.608C58.8314 150.853 58.8954 151.152 58.8954 151.504C58.8954 152.325 58.5914 152.976 57.9834 153.456C57.3754 153.925 56.5488 154.16 55.5034 154.16ZM59.7606 149.808C59.7606 149.221 59.8619 148.667 60.0646 148.144C60.2672 147.621 60.5606 147.163 60.9446 146.768C61.3286 146.373 61.7926 146.059 62.3366 145.824C62.8806 145.589 63.4939 145.472 64.1766 145.472C65.0939 145.472 65.8726 145.669 66.5126 146.064C67.1632 146.459 67.6486 146.976 67.9686 147.616L65.8726 148.256C65.6912 147.947 65.4512 147.712 65.1526 147.552C64.8539 147.381 64.5232 147.296 64.1606 147.296C63.8512 147.296 63.5632 147.36 63.2966 147.488C63.0299 147.605 62.7952 147.776 62.5926 148C62.4006 148.213 62.2459 148.475 62.1286 148.784C62.0219 149.093 61.9686 149.435 61.9686 149.808C61.9686 150.181 62.0272 150.523 62.1446 150.832C62.2619 151.141 62.4166 151.408 62.6086 151.632C62.8112 151.856 63.0459 152.032 63.3126 152.16C63.5792 152.277 63.8619 152.336 64.1606 152.336C64.5446 152.336 64.8966 152.24 65.2166 152.048C65.5472 151.856 65.7766 151.621 65.9046 151.344L68.0006 151.984C67.7126 152.624 67.2379 153.147 66.5766 153.552C65.9152 153.957 65.1206 154.16 64.1926 154.16C63.5099 154.16 62.8966 154.043 62.3526 153.808C61.8086 153.573 61.3446 153.259 60.9606 152.864C60.5766 152.459 60.2779 151.995 60.0646 151.472C59.8619 150.939 59.7606 150.384 59.7606 149.808ZM74.3118 147.472C73.6611 147.483 73.0798 147.611 72.5678 147.856C72.0558 148.091 71.6878 148.448 71.4638 148.928V154H69.3198V145.616H71.2878V147.408C71.4371 147.12 71.6131 146.864 71.8158 146.64C72.0185 146.405 72.2371 146.203 72.4718 146.032C72.7065 145.861 72.9411 145.733 73.1758 145.648C73.4211 145.552 73.6558 145.504 73.8798 145.504C73.9971 145.504 74.0825 145.504 74.1358 145.504C74.1998 145.504 74.2585 145.509 74.3118 145.52V147.472ZM75.5073 154V145.616H77.6513V154H75.5073ZM75.5073 144.448V142.32H77.6513V144.448H75.5073ZM84.6094 154.16C83.9481 154.16 83.3721 154.016 82.8814 153.728C82.3908 153.429 82.0068 153.029 81.7294 152.528V157.408H79.5854V145.616H81.4574V147.056C81.7668 146.565 82.1668 146.181 82.6574 145.904C83.1481 145.616 83.7134 145.472 84.3534 145.472C84.9188 145.472 85.4414 145.589 85.9214 145.824C86.4014 146.048 86.8121 146.357 87.1534 146.752C87.5054 147.136 87.7774 147.595 87.9694 148.128C88.1721 148.651 88.2734 149.205 88.2734 149.792C88.2734 150.4 88.1828 150.971 88.0014 151.504C87.8201 152.037 87.5641 152.501 87.2334 152.896C86.9134 153.291 86.5294 153.6 86.0814 153.824C85.6334 154.048 85.1428 154.16 84.6094 154.16ZM83.8894 152.336C84.2094 152.336 84.5028 152.267 84.7694 152.128C85.0468 151.989 85.2814 151.803 85.4734 151.568C85.6654 151.333 85.8148 151.061 85.9214 150.752C86.0281 150.443 86.0814 150.123 86.0814 149.792C86.0814 149.44 86.0228 149.115 85.9054 148.816C85.7881 148.507 85.6228 148.24 85.4094 148.016C85.2068 147.792 84.9614 147.616 84.6734 147.488C84.3961 147.36 84.0921 147.296 83.7614 147.296C83.5588 147.296 83.3508 147.333 83.1374 147.408C82.9241 147.472 82.7268 147.568 82.5454 147.696C82.3641 147.824 82.1988 147.973 82.0494 148.144C81.9108 148.315 81.8041 148.501 81.7294 148.704V150.672C81.9214 151.152 82.2148 151.552 82.6094 151.872C83.0041 152.181 83.4308 152.336 83.8894 152.336ZM94.6407 153.568C94.3527 153.696 94.0007 153.824 93.5847 153.952C93.1687 154.08 92.7314 154.144 92.2727 154.144C91.974 154.144 91.6914 154.107 91.4247 154.032C91.1687 153.957 90.9394 153.84 90.7367 153.68C90.5447 153.509 90.39 153.296 90.2727 153.04C90.1554 152.773 90.0967 152.453 90.0967 152.08V147.264H88.9927V145.616H90.0967V142.896H92.2407V145.616H94.0007V147.264H92.2407V151.36C92.2407 151.659 92.3154 151.872 92.4647 152C92.6247 152.117 92.8167 152.176 93.0407 152.176C93.2647 152.176 93.4834 152.139 93.6967 152.064C93.91 151.989 94.0807 151.925 94.2087 151.872L94.6407 153.568Z" fill="#464646"/>
</svg>
