<svg width="176" height="174" viewBox="0 0 176 174" fill="none" xmlns="http://www.w3.org/2000/svg">
<rect width="176" height="174" fill="white"/>
<path d="M35.75 125.25C35.875 125.25 36 125.25 36.125 125.188L39.75 123.062C39.9375 122.938 40.125 122.688 40.125 122.438V118.25C40.125 118 39.9375 117.75 39.75 117.625L36.125 115.5C35.875 115.375 35.5625 115.375 35.375 115.5L31.75 117.625C31.5 117.75 31.375 118 31.375 118.25V122.438C31.375 122.688 31.5 122.938 31.75 123.062L32.6875 123.625C33.125 123.875 33.3125 123.875 33.5 123.875C34.1875 123.875 34.625 123.438 34.625 122.75V118.625C34.625 118.562 34.5625 118.5 34.5 118.5H34.0625C34 118.5 33.9375 118.562 33.9375 118.625V122.75C33.9375 123.062 33.625 123.375 33.0625 123.062L32.0625 122.5L32 122.438V118.25L32.0625 118.188L35.6875 116.062C35.75 116.062 35.75 116.062 35.8125 116.062L39.4375 118.188C39.4375 118.188 39.4375 118.188 39.4375 118.25V122.438C39.4375 122.5 39.4375 122.5 39.4375 122.5L35.8125 124.625C35.75 124.625 35.6875 124.625 35.6875 124.625L34.75 124.062H34.6875C34.4375 124.188 34.375 124.25 34.125 124.312C34.0625 124.312 34 124.375 34.1875 124.438L35.375 125.188C35.5 125.25 35.625 125.25 35.75 125.25ZM38.6875 121.188C38.6875 120.375 38.125 120.188 37 120C35.875 119.875 35.8125 119.812 35.8125 119.562C35.8125 119.312 35.875 119.062 36.6875 119.062C37.4375 119.062 37.75 119.188 37.8125 119.688C37.875 119.75 37.875 119.75 37.9375 119.75H38.4375C38.4375 119.75 38.4375 119.75 38.5 119.75V119.688C38.4375 118.812 37.875 118.375 36.6875 118.375C35.6875 118.375 35.0625 118.812 35.0625 119.562C35.0625 120.375 35.6875 120.562 36.6875 120.688C37.875 120.812 37.9375 120.938 37.9375 121.188C37.9375 121.625 37.625 121.75 36.875 121.75C35.875 121.75 35.6875 121.5 35.625 121.062C35.625 121 35.5625 120.938 35.5 120.938H35.0625C35 120.938 34.9375 121 34.9375 121.062C34.9375 121.688 35.25 122.375 36.875 122.375C38 122.375 38.6875 121.938 38.6875 121.188ZM42.0625 118.062C42.0625 117.625 41.75 117.312 41.375 117.312C41 117.312 40.6875 117.625 40.6875 118.062C40.6875 118.438 41 118.75 41.375 118.75C41.75 118.75 42.0625 118.438 42.0625 118.062ZM41.9375 118.062C41.9375 118.375 41.6875 118.625 41.375 118.625C41.0625 118.625 40.8125 118.375 40.8125 118.062C40.8125 117.688 41.0625 117.438 41.375 117.438C41.6875 117.438 41.9375 117.688 41.9375 118.062ZM41.6875 118.438C41.625 118.375 41.625 118.25 41.625 118.188C41.625 118.125 41.625 118.062 41.5 118.062C41.5625 118 41.625 118 41.625 117.875C41.625 117.625 41.5 117.625 41.375 117.625H41.125V118.438H41.25V118.125H41.375C41.4375 118.125 41.4375 118.125 41.5 118.188C41.5 118.188 41.5 118.375 41.5 118.438H41.6875ZM41.5 117.875C41.5 117.938 41.5 118 41.375 118H41.25V117.75H41.375C41.4375 117.75 41.5 117.75 41.5 117.875ZM24.5625 108.938C24.5625 108.812 24.4375 108.625 24.3125 108.562L20.5 106.375C20.4375 106.312 20.375 106.312 20.25 106.312C20.1875 106.312 20.125 106.312 20 106.375L16.1875 108.562C16.0625 108.625 16 108.812 16 108.938V114.875C16 115 16 115.062 16.0625 115.125C16.1875 115.125 16.25 115.125 16.3125 115.125L18.625 113.812C18.75 113.688 18.8125 113.562 18.8125 113.375V110.625C18.8125 110.438 18.9375 110.312 19.0625 110.25L20 109.688C20.125 109.625 20.1875 109.625 20.25 109.625C20.3125 109.625 20.4375 109.625 20.5 109.688L21.4375 110.25C21.625 110.312 21.6875 110.438 21.6875 110.625V113.375C21.6875 113.562 21.75 113.688 21.9375 113.812L24.1875 115.125C24.25 115.125 24.375 115.125 24.4375 115.125C24.5 115.062 24.5625 115 24.5625 114.875V108.938ZM45.5 102.5C45.5 102.312 45.4375 102.188 45.25 102.062L43 100.812C42.8125 100.75 42.625 100.812 42.625 101V106.875C42.625 107 42.5 107.062 42.375 107L41.4375 106.5C41.3125 106.375 41.125 106.375 41 106.5L37.125 108.688C37 108.75 36.9375 108.938 36.9375 109.062V113.5C36.9375 113.688 37 113.812 37.125 113.938L41 116.125C41.125 116.188 41.3125 116.188 41.4375 116.125L45.25 113.938C45.4375 113.812 45.5 113.688 45.5 113.5V102.5ZM42.625 110.562V112.062C42.625 112.125 42.625 112.125 42.5625 112.188L41.25 112.938C41.25 112.938 41.1875 112.938 41.125 112.938L39.8125 112.188C39.8125 112.125 39.75 112.125 39.75 112.062V110.562C39.75 110.5 39.8125 110.438 39.8125 110.438L41.125 109.688C41.1875 109.688 41.25 109.688 41.25 109.688L42.5625 110.438C42.625 110.438 42.625 110.5 42.625 110.562ZM55.75 110.5C55.875 110.438 56 110.25 56 110.125V109C56 108.875 55.875 108.688 55.75 108.625L51.9375 106.438C51.8125 106.312 51.625 106.312 51.5 106.438L47.625 108.625C47.5 108.688 47.4375 108.875 47.4375 109V113.438C47.4375 113.625 47.5 113.75 47.625 113.875L51.4375 116C51.5625 116.125 51.75 116.125 51.875 116L54.1875 114.75C54.375 114.625 54.375 114.438 54.1875 114.312L50.375 112.125C50.25 112.062 50.25 112 50.25 111.938V110.562C50.25 110.438 50.25 110.375 50.375 110.312L51.5625 109.625C51.625 109.625 51.6875 109.625 51.75 109.625L53 110.312C53.0625 110.375 53.125 110.438 53.125 110.562V111.625C53.125 111.812 53.3125 111.938 53.4375 111.812L55.75 110.5ZM50.9375 110.688C50.875 110.75 50.875 110.75 50.875 110.812V111.625C50.875 111.688 50.875 111.688 50.9375 111.688L51.625 112.125C51.6875 112.188 51.6875 112.188 51.75 112.125L52.5 111.688C52.5 111.688 52.5 111.688 52.5 111.625V110.812C52.5 110.75 52.5 110.75 52.5 110.688L51.75 110.312C51.6875 110.25 51.6875 110.25 51.625 110.312L50.9375 110.688ZM35 113.438V109.062C35 108.875 34.9375 108.688 34.75 108.625L30.9375 106.438C30.8125 106.375 30.625 106.375 30.5 106.438L26.6875 108.625C26.5625 108.688 26.4375 108.875 26.4375 109.062V113.438C26.4375 113.625 26.5625 113.75 26.6875 113.812L30.5 116.062C30.6875 116.125 30.8125 116.125 31 116.062L34.8125 113.812C34.875 113.75 35 113.688 35 113.562C35 113.5 35 113.5 35 113.438ZM30.375 105.625V105.688H30.3125L30.375 105.625Z" fill="#2A7AE4"/>
<path d="M19.392 146.72V154H17.184V142.64H18.896L24.816 150.096V142.656H27.024V154H25.232L19.392 146.72ZM32.9418 154.16C32.2591 154.16 31.6458 154.043 31.1018 153.808C30.5578 153.573 30.0938 153.259 29.7098 152.864C29.3364 152.459 29.0484 151.995 28.8458 151.472C28.6431 150.949 28.5418 150.4 28.5418 149.824C28.5418 149.237 28.6431 148.683 28.8458 148.16C29.0484 147.637 29.3364 147.179 29.7098 146.784C30.0938 146.379 30.5578 146.059 31.1018 145.824C31.6458 145.589 32.2591 145.472 32.9418 145.472C33.6244 145.472 34.2324 145.589 34.7658 145.824C35.3098 146.059 35.7684 146.379 36.1418 146.784C36.5258 147.179 36.8191 147.637 37.0218 148.16C37.2244 148.683 37.3258 149.237 37.3258 149.824C37.3258 150.4 37.2244 150.949 37.0218 151.472C36.8191 151.995 36.5311 152.459 36.1578 152.864C35.7844 153.259 35.3258 153.573 34.7818 153.808C34.2378 154.043 33.6244 154.16 32.9418 154.16ZM30.7498 149.824C30.7498 150.197 30.8031 150.539 30.9098 150.848C31.0271 151.147 31.1818 151.408 31.3738 151.632C31.5764 151.856 31.8111 152.032 32.0778 152.16C32.3444 152.277 32.6324 152.336 32.9418 152.336C33.2511 152.336 33.5391 152.277 33.8058 152.16C34.0724 152.032 34.3018 151.856 34.4938 151.632C34.6964 151.408 34.8511 151.141 34.9578 150.832C35.0751 150.523 35.1338 150.181 35.1338 149.808C35.1338 149.445 35.0751 149.109 34.9578 148.8C34.8511 148.491 34.6964 148.224 34.4938 148C34.3018 147.776 34.0724 147.605 33.8058 147.488C33.5391 147.36 33.2511 147.296 32.9418 147.296C32.6324 147.296 32.3444 147.36 32.0778 147.488C31.8111 147.616 31.5764 147.792 31.3738 148.016C31.1818 148.24 31.0271 148.507 30.9098 148.816C30.8031 149.125 30.7498 149.461 30.7498 149.824ZM42.2449 154.16C41.6689 154.16 41.1355 154.048 40.6449 153.824C40.1542 153.6 39.7329 153.291 39.3809 152.896C39.0289 152.501 38.7515 152.043 38.5489 151.52C38.3569 150.987 38.2609 150.416 38.2609 149.808C38.2609 149.2 38.3515 148.635 38.5329 148.112C38.7249 147.589 38.9862 147.131 39.3169 146.736C39.6475 146.341 40.0422 146.032 40.5009 145.808C40.9595 145.584 41.4609 145.472 42.0049 145.472C42.6235 145.472 43.1782 145.621 43.6689 145.92C44.1702 146.219 44.5595 146.608 44.8369 147.088V142.32H46.9809V151.536C46.9809 151.76 47.0182 151.92 47.0929 152.016C47.1675 152.112 47.2955 152.165 47.4769 152.176V154C47.1035 154.075 46.7995 154.112 46.5649 154.112C46.1809 154.112 45.8662 154.016 45.6209 153.824C45.3755 153.632 45.2369 153.381 45.2049 153.072L45.1569 152.544C44.8475 153.077 44.4262 153.483 43.8929 153.76C43.3702 154.027 42.8209 154.16 42.2449 154.16ZM42.8049 152.336C43.0075 152.336 43.2155 152.304 43.4289 152.24C43.6422 152.165 43.8395 152.064 44.0209 151.936C44.2022 151.808 44.3622 151.659 44.5009 151.488C44.6502 151.317 44.7622 151.131 44.8369 150.928V148.928C44.7515 148.693 44.6289 148.48 44.4689 148.288C44.3195 148.085 44.1435 147.915 43.9409 147.776C43.7489 147.627 43.5409 147.509 43.3169 147.424C43.1035 147.339 42.8902 147.296 42.6769 147.296C42.3569 147.296 42.0582 147.365 41.7809 147.504C41.5142 147.643 41.2849 147.835 41.0929 148.08C40.9009 148.315 40.7515 148.587 40.6449 148.896C40.5382 149.205 40.4849 149.525 40.4849 149.856C40.4849 150.208 40.5435 150.533 40.6609 150.832C40.7782 151.131 40.9382 151.392 41.1409 151.616C41.3435 151.84 41.5835 152.016 41.8609 152.144C42.1489 152.272 42.4635 152.336 42.8049 152.336ZM52.9734 154.16C52.3014 154.16 51.6934 154.048 51.1494 153.824C50.6054 153.589 50.1414 153.275 49.7574 152.88C49.3734 152.485 49.0747 152.027 48.8614 151.504C48.6587 150.981 48.5574 150.432 48.5574 149.856C48.5574 149.259 48.6587 148.699 48.8614 148.176C49.064 147.643 49.3574 147.179 49.7414 146.784C50.1254 146.379 50.5894 146.059 51.1334 145.824C51.688 145.589 52.3067 145.472 52.9894 145.472C53.672 145.472 54.28 145.589 54.8134 145.824C55.3574 146.059 55.816 146.373 56.1894 146.768C56.5734 147.163 56.8614 147.621 57.0534 148.144C57.256 148.667 57.3574 149.211 57.3574 149.776C57.3574 149.915 57.352 150.048 57.3414 150.176C57.3414 150.304 57.3307 150.411 57.3094 150.496H50.8294C50.8614 150.827 50.9414 151.12 51.0694 151.376C51.1974 151.632 51.3627 151.851 51.5654 152.032C51.768 152.213 51.9974 152.352 52.2534 152.448C52.5094 152.544 52.776 152.592 53.0534 152.592C53.48 152.592 53.88 152.491 54.2534 152.288C54.6374 152.075 54.8987 151.797 55.0374 151.456L56.8774 151.968C56.568 152.608 56.072 153.136 55.3894 153.552C54.7174 153.957 53.912 154.16 52.9734 154.16ZM55.1494 149.104C55.096 148.475 54.8614 147.973 54.4454 147.6C54.04 147.216 53.544 147.024 52.9574 147.024C52.6694 147.024 52.3974 147.077 52.1414 147.184C51.896 147.28 51.6774 147.419 51.4854 147.6C51.2934 147.781 51.1334 148 51.0054 148.256C50.888 148.512 50.8187 148.795 50.7974 149.104H55.1494ZM61.7018 151.68C61.8511 151.787 62.1018 151.904 62.4538 152.032C62.8058 152.16 63.2111 152.224 63.6698 152.224C64.1178 152.224 64.4751 152.149 64.7418 152C65.0084 151.84 65.2111 151.6 65.3498 151.28C65.4884 150.96 65.5791 150.565 65.6218 150.096C65.6644 149.616 65.6858 149.056 65.6858 148.416V142.64H67.8938V148.416C67.8938 149.28 67.8458 150.069 67.7498 150.784C67.6644 151.488 67.4724 152.091 67.1738 152.592C66.8858 153.093 66.4644 153.483 65.9098 153.76C65.3551 154.037 64.6084 154.176 63.6698 154.176C62.7098 154.176 61.8884 153.941 61.2058 153.472L61.7018 151.68ZM76.9051 145.616C76.8305 145.541 76.6918 145.44 76.4891 145.312C76.2971 145.184 76.0571 145.061 75.7691 144.944C75.4918 144.816 75.1878 144.709 74.8571 144.624C74.5265 144.539 74.1905 144.496 73.8491 144.496C73.2411 144.496 72.7878 144.608 72.4891 144.832C72.1905 145.056 72.0411 145.371 72.0411 145.776C72.0411 146.011 72.0945 146.208 72.2011 146.368C72.3185 146.517 72.4838 146.651 72.6971 146.768C72.9105 146.885 73.1771 146.992 73.4971 147.088C73.8278 147.184 74.2065 147.285 74.6331 147.392C75.1878 147.541 75.6891 147.701 76.1371 147.872C76.5958 148.043 76.9798 148.256 77.2891 148.512C77.6091 148.768 77.8545 149.077 78.0251 149.44C78.1958 149.792 78.2811 150.229 78.2811 150.752C78.2811 151.36 78.1638 151.883 77.9291 152.32C77.7051 152.747 77.3958 153.093 77.0011 153.36C76.6171 153.627 76.1691 153.824 75.6571 153.952C75.1558 154.069 74.6278 154.128 74.0731 154.128C73.2198 154.128 72.3771 154 71.5451 153.744C70.7131 153.488 69.9665 153.125 69.3051 152.656L70.2811 150.752C70.3771 150.848 70.5478 150.976 70.7931 151.136C71.0491 151.285 71.3478 151.44 71.6891 151.6C72.0305 151.749 72.4091 151.877 72.8251 151.984C73.2411 152.091 73.6678 152.144 74.1051 152.144C75.3211 152.144 75.9291 151.755 75.9291 150.976C75.9291 150.731 75.8598 150.523 75.7211 150.352C75.5825 150.181 75.3851 150.032 75.1291 149.904C74.8731 149.776 74.5638 149.659 74.2011 149.552C73.8385 149.445 73.4331 149.328 72.9851 149.2C72.4411 149.051 71.9665 148.891 71.5611 148.72C71.1665 148.539 70.8358 148.331 70.5691 148.096C70.3025 147.851 70.0998 147.573 69.9611 147.264C69.8331 146.944 69.7691 146.565 69.7691 146.128C69.7691 145.552 69.8758 145.04 70.0891 144.592C70.3025 144.144 70.5958 143.771 70.9691 143.472C71.3531 143.173 71.7958 142.949 72.2971 142.8C72.7985 142.64 73.3371 142.56 73.9131 142.56C74.7131 142.56 75.4491 142.688 76.1211 142.944C76.7931 143.189 77.3798 143.483 77.8811 143.824L76.9051 145.616Z" fill="#464646"/>
</svg>
