<svg width="176" height="174" viewBox="0 0 176 174" fill="none" xmlns="http://www.w3.org/2000/svg">
<rect width="176" height="174" fill="white"/>
<path d="M33.3333 103C33.3333 101.533 34.5333 100.333 36 100.333C37.4667 100.333 38.6667 101.533 38.6667 103C38.6667 104.467 37.4667 105.667 36 105.667C34.5333 105.667 33.3333 104.467 33.3333 103ZM25.6667 129C25.12 129 24.6667 129.453 24.6667 130C24.6667 130.547 25.12 131 25.6667 131C26.2133 131 26.6667 130.547 26.6667 130C26.6667 129.453 26.2133 129 25.6667 129ZM37 129C36.4533 129 36 129.453 36 130C36 130.547 36.4533 131 37 131C37.5467 131 38 130.547 38 130C38 129.453 37.5467 129 37 129ZM41.6533 124.333C41.3333 124.333 41.0533 124.48 40.8667 124.733C40.1333 125.707 38.9733 126.333 37.6667 126.333H37.3333V118.333L31.5733 114.773L33.9733 110.92C35.5067 113.373 38.24 115 41.3333 115V112.333C38.8667 112.333 36.7467 110.84 35.8267 108.707L35.1333 107.093C34.88 106.52 34.1467 105.667 32.9333 105.667H25.3333L22 111L24.2667 112.413L26.8 108.333H29.9333L26.7333 113.453C26.32 114.12 26.2133 114.933 26.4533 115.68L28.24 121.213L24.08 126.227C23.1467 126.013 22.3467 125.467 21.8 124.733C21.6133 124.48 21.32 124.333 21 124.333C20.4133 124.333 20 124.813 20 125.333C20 125.533 20.0667 125.747 20.2 125.933C21.2933 127.4 23.04 128.333 25 128.333H37.6667C39.6267 128.333 41.3733 127.4 42.4667 125.933C42.6 125.747 42.6667 125.533 42.6667 125.333C42.6667 124.813 42.24 124.333 41.6533 124.333ZM34.6667 126.333H27.4667L31.3333 121.667L30 117.267L34.6667 120.2V126.333Z" fill="#2A7AE4"/>
<path d="M17.184 154V142.64H22C22.5227 142.64 23.0027 142.747 23.44 142.96C23.888 143.173 24.272 143.461 24.592 143.824C24.912 144.187 25.1627 144.592 25.344 145.04C25.5253 145.488 25.616 145.947 25.616 146.416C25.616 147.056 25.4667 147.664 25.168 148.24C24.8693 148.816 24.4533 149.285 23.92 149.648C23.3973 150.011 22.784 150.192 22.08 150.192H19.392V154H17.184ZM19.392 148.256H21.952C22.3573 148.256 22.6933 148.091 22.96 147.76C23.2373 147.419 23.376 146.971 23.376 146.416C23.376 145.829 23.2213 145.376 22.912 145.056C22.6027 144.736 22.2507 144.576 21.856 144.576H19.392V148.256ZM26.2594 151.52C26.2594 150.976 26.4087 150.501 26.7074 150.096C27.0167 149.68 27.4434 149.36 27.9874 149.136C28.5314 148.912 29.1554 148.8 29.8594 148.8C30.2114 148.8 30.5687 148.832 30.9314 148.896C31.294 148.949 31.6087 149.029 31.8754 149.136V148.688C31.8754 148.155 31.7154 147.744 31.3954 147.456C31.086 147.168 30.622 147.024 30.0034 147.024C29.5447 147.024 29.1074 147.104 28.6914 147.264C28.2754 147.424 27.838 147.659 27.3794 147.968L26.6914 146.56C27.246 146.197 27.8114 145.925 28.3874 145.744C28.974 145.563 29.5874 145.472 30.2274 145.472C31.422 145.472 32.35 145.771 33.0114 146.368C33.6834 146.965 34.0194 147.819 34.0194 148.928V151.6C34.0194 151.835 34.0567 152 34.1314 152.096C34.206 152.181 34.3394 152.235 34.5314 152.256V154C34.3394 154.043 34.1634 154.069 34.0034 154.08C33.854 154.101 33.726 154.112 33.6194 154.112C33.1927 154.112 32.8674 154.016 32.6434 153.824C32.4194 153.632 32.286 153.397 32.2434 153.12L32.1954 152.688C31.822 153.168 31.3634 153.536 30.8194 153.792C30.286 154.037 29.7367 154.16 29.1714 154.16C28.606 154.16 28.1047 154.048 27.6674 153.824C27.23 153.589 26.8834 153.275 26.6274 152.88C26.382 152.475 26.2594 152.021 26.2594 151.52ZM31.4754 151.952C31.742 151.696 31.8754 151.451 31.8754 151.216V150.368C31.3207 150.144 30.7607 150.032 30.1954 150.032C29.63 150.032 29.1714 150.155 28.8194 150.4C28.4674 150.635 28.2914 150.949 28.2914 151.344C28.2914 151.664 28.4194 151.952 28.6754 152.208C28.9314 152.464 29.2994 152.592 29.7794 152.592C30.0994 152.592 30.4087 152.533 30.7074 152.416C31.0167 152.299 31.2727 152.144 31.4754 151.952ZM40.9688 153.568C40.6808 153.696 40.3234 153.824 39.8968 153.952C39.4808 154.08 39.0488 154.144 38.6008 154.144C38.2061 154.144 37.8434 154.075 37.5128 153.936C37.1821 153.797 36.9154 153.579 36.7128 153.28C36.5208 152.971 36.4248 152.571 36.4248 152.08V147.264H35.3208V145.616H36.4248V142.896H38.5688V145.616H40.3288V147.264H38.5688V151.36C38.5688 151.648 38.6434 151.856 38.7928 151.984C38.9528 152.112 39.1448 152.176 39.3688 152.176C39.5928 152.176 39.8114 152.139 40.0248 152.064C40.2381 151.989 40.4088 151.925 40.5368 151.872L40.9688 153.568ZM42.0854 144.448V142.32H44.2294V144.448H42.0854ZM42.0854 154V145.616H44.2294V154H42.0854ZM53.9555 154H51.8115V149.296C51.8115 148.624 51.6942 148.133 51.4595 147.824C51.2248 147.515 50.8995 147.36 50.4835 147.36C50.1955 147.36 49.9022 147.435 49.6035 147.584C49.3155 147.733 49.0542 147.941 48.8195 148.208C48.5848 148.464 48.4142 148.763 48.3075 149.104V154H46.1635V145.616H48.0995V147.168C48.4088 146.645 48.8568 146.235 49.4435 145.936C50.0302 145.627 50.6915 145.472 51.4275 145.472C51.9502 145.472 52.3768 145.568 52.7075 145.76C53.0382 145.941 53.2942 146.192 53.4755 146.512C53.6568 146.821 53.7795 147.173 53.8435 147.568C53.9182 147.963 53.9555 148.363 53.9555 148.768V154ZM55.2438 151.52C55.2438 150.976 55.3931 150.501 55.6918 150.096C56.0011 149.68 56.4278 149.36 56.9718 149.136C57.5158 148.912 58.1398 148.8 58.8438 148.8C59.1958 148.8 59.5531 148.832 59.9158 148.896C60.2784 148.949 60.5931 149.029 60.8598 149.136V148.688C60.8598 148.155 60.6998 147.744 60.3798 147.456C60.0704 147.168 59.6064 147.024 58.9878 147.024C58.5291 147.024 58.0918 147.104 57.6758 147.264C57.2598 147.424 56.8224 147.659 56.3638 147.968L55.6758 146.56C56.2304 146.197 56.7958 145.925 57.3718 145.744C57.9584 145.563 58.5718 145.472 59.2118 145.472C60.4064 145.472 61.3344 145.771 61.9958 146.368C62.6678 146.965 63.0038 147.819 63.0038 148.928V151.6C63.0038 151.835 63.0411 152 63.1158 152.096C63.1904 152.181 63.3238 152.235 63.5158 152.256V154C63.3238 154.043 63.1478 154.069 62.9878 154.08C62.8384 154.101 62.7104 154.112 62.6038 154.112C62.1771 154.112 61.8518 154.016 61.6278 153.824C61.4038 153.632 61.2704 153.397 61.2278 153.12L61.1798 152.688C60.8064 153.168 60.3478 153.536 59.8038 153.792C59.2704 154.037 58.7211 154.16 58.1558 154.16C57.5904 154.16 57.0891 154.048 56.6518 153.824C56.2144 153.589 55.8678 153.275 55.6118 152.88C55.3664 152.475 55.2438 152.021 55.2438 151.52ZM60.4598 151.952C60.7264 151.696 60.8598 151.451 60.8598 151.216V150.368C60.3051 150.144 59.7451 150.032 59.1798 150.032C58.6144 150.032 58.1558 150.155 57.8038 150.4C57.4518 150.635 57.2758 150.949 57.2758 151.344C57.2758 151.664 57.4038 151.952 57.6598 152.208C57.9158 152.464 58.2838 152.592 58.7638 152.592C59.0838 152.592 59.3931 152.533 59.6918 152.416C60.0011 152.299 60.2571 152.144 60.4598 151.952ZM65.0872 144.448V142.32H67.2313V144.448H65.0872ZM64.3193 157.136C63.9246 157.136 63.5459 157.072 63.1832 156.944C62.8099 156.827 62.4792 156.64 62.1912 156.384L63.1192 154.928C63.2472 155.045 63.3966 155.131 63.5672 155.184C63.7272 155.248 63.8926 155.28 64.0633 155.28C64.3406 155.28 64.5806 155.179 64.7833 154.976C64.9859 154.784 65.0872 154.533 65.0872 154.224V145.616H67.2313V154.064C67.2313 154.672 67.1033 155.205 66.8473 155.664C66.5913 156.123 66.2393 156.48 65.7913 156.736C65.3539 157.003 64.8633 157.136 64.3193 157.136ZM73.0671 154.16C72.1605 154.16 71.3765 153.963 70.7151 153.568C70.0645 153.173 69.5578 152.651 69.1951 152C68.8325 151.339 68.6511 150.624 68.6511 149.856C68.6511 149.067 68.8271 148.341 69.1791 147.68C69.5418 147.008 70.0538 146.475 70.7151 146.08C71.3765 145.675 72.1658 145.472 73.0831 145.472C74.0005 145.472 74.7845 145.675 75.4351 146.08C76.0858 146.475 76.5818 147.003 76.9231 147.664C77.2751 148.315 77.4511 149.019 77.4511 149.776C77.4511 150.053 77.4351 150.293 77.4031 150.496H70.9231C70.9765 151.147 71.2165 151.659 71.6431 152.032C72.0805 152.405 72.5818 152.592 73.1471 152.592C73.5738 152.592 73.9738 152.491 74.3471 152.288C74.7311 152.075 74.9925 151.797 75.1311 151.456L76.9711 151.968C76.6618 152.608 76.1658 153.136 75.4831 153.552C74.8005 153.957 73.9951 154.16 73.0671 154.16ZM70.8751 149.136H75.2591C75.1951 148.507 74.9551 148 74.5391 147.616C74.1338 147.221 73.6378 147.024 73.0511 147.024C72.4751 147.024 71.9791 147.221 71.5631 147.616C71.1578 148 70.9285 148.507 70.8751 149.136Z" fill="#464646"/>
</svg>
