<svg width="176" height="174" viewBox="0 0 176 174" fill="none" xmlns="http://www.w3.org/2000/svg">
<rect width="176" height="174" fill="white"/>
<path d="M36 103.562C46.6875 103.562 54.9375 108.062 54.9375 113C54.9375 118 46.6875 122.5 36 122.5C25.25 122.5 17 118 17 113C17 108.062 25.25 103.562 36 103.562ZM36 102.5C24.9375 102.5 16 107.188 16 113C16 118.812 24.9375 123.562 36 123.562C47 123.562 56 118.812 56 113C56 107.188 47 102.5 36 102.5ZM29.625 112.188C29.125 114.688 27.375 114.438 25.25 114.438L26.0625 110.062C28.4375 110.062 30.0625 109.812 29.625 112.188ZM22.0625 118.938H24.375L24.875 116.125C27.4375 116.125 29.0625 116.312 30.5625 114.938C32.1875 113.438 32.5625 110.75 31.4375 109.438C30.8125 108.75 29.875 108.375 28.5 108.375H24.125L22.0625 118.938ZM33.6875 105.562L31.625 116.125H33.875L35.0625 110.062C36.9375 110.062 37.6875 110 38.0625 110.375C38.375 110.75 38.1875 111.125 37.25 116.125H39.5625C40.5625 111 41 109.875 40.0625 109.062C39.1875 108.25 37.375 108.375 35.375 108.375L35.9375 105.562H33.6875ZM47.5625 112.188C47.0625 114.75 45.25 114.438 43.125 114.438L44 110.062C46.375 110.062 48 109.812 47.5625 112.188ZM40 118.938H42.3125L42.8125 116.125C45.5 116.125 47 116.25 48.4375 114.938C50.125 113.438 50.5 110.75 49.375 109.438C48.75 108.75 47.75 108.375 46.4375 108.375H42.0625L40 118.938Z" fill="#2A7AE4"/>
<path d="M17.184 154V142.64H22C22.5227 142.64 23.0027 142.752 23.44 142.976C23.888 143.189 24.272 143.477 24.592 143.84C24.912 144.192 25.1627 144.597 25.344 145.056C25.5253 145.504 25.616 145.957 25.616 146.416C25.616 146.896 25.5307 147.365 25.36 147.824C25.1893 148.272 24.9493 148.672 24.64 149.024C24.3307 149.376 23.9573 149.659 23.52 149.872C23.0827 150.085 22.6027 150.192 22.08 150.192H19.392V154H17.184ZM19.392 148.256H21.952C22.3573 148.256 22.6933 148.091 22.96 147.76C23.2373 147.429 23.376 146.981 23.376 146.416C23.376 146.128 23.3333 145.872 23.248 145.648C23.1627 145.413 23.0507 145.216 22.912 145.056C22.7733 144.896 22.608 144.779 22.416 144.704C22.2347 144.619 22.048 144.576 21.856 144.576H19.392V148.256ZM36.7048 142.64V154H34.5128V149.152H29.3608V154H27.1528V142.64H29.3608V147.232H34.5128V142.64H36.7048ZM39.0746 154V142.64H43.8906C44.4133 142.64 44.8933 142.752 45.3306 142.976C45.7786 143.189 46.1626 143.477 46.4826 143.84C46.8026 144.192 47.0533 144.597 47.2346 145.056C47.416 145.504 47.5066 145.957 47.5066 146.416C47.5066 146.896 47.4213 147.365 47.2506 147.824C47.08 148.272 46.84 148.672 46.5306 149.024C46.2213 149.376 45.848 149.659 45.4106 149.872C44.9733 150.085 44.4933 150.192 43.9706 150.192H41.2826V154H39.0746ZM41.2826 148.256H43.8426C44.248 148.256 44.584 148.091 44.8506 147.76C45.128 147.429 45.2666 146.981 45.2666 146.416C45.2666 146.128 45.224 145.872 45.1386 145.648C45.0533 145.413 44.9413 145.216 44.8026 145.056C44.664 144.896 44.4986 144.779 44.3066 144.704C44.1253 144.619 43.9386 144.576 43.7466 144.576H41.2826V148.256Z" fill="#464646"/>
</svg>
