<svg width="177" height="174" viewBox="0 0 177 174" fill="none" xmlns="http://www.w3.org/2000/svg">
<rect width="176" height="174" transform="translate(0.124939)" fill="white"/>
<path d="M42.2499 108.125C41.8749 108 41.5624 107.875 41.2499 107.812C41.2499 107.562 41.3124 107.312 41.3749 107.062C42.1249 103.375 41.6249 100.375 39.9374 99.375C38.3124 98.4375 35.6249 99.4375 32.8749 101.812C32.6249 102 32.3749 102.25 32.1249 102.5C31.9374 102.312 31.7499 102.188 31.6249 102C28.7499 99.5 25.8749 98.4375 24.1874 99.4375C22.5624 100.375 22.0624 103.188 22.7499 106.75C22.8124 107.062 22.8749 107.438 22.9999 107.75C22.5624 107.875 22.1874 108 21.8124 108.125C18.4999 109.312 16.1249 111.125 16.1249 113C16.1249 114.938 18.6249 116.938 22.1249 118.125C22.3749 118.188 22.6874 118.312 22.9374 118.375C22.8749 118.75 22.8124 119.125 22.6874 119.5C22.0624 122.938 22.5624 125.688 24.1874 126.625C25.8749 127.625 28.7499 126.625 31.4999 124.188C31.6874 124 31.9374 123.812 32.1249 123.625C32.4374 123.875 32.6874 124.125 32.9999 124.375C35.6874 126.688 38.3124 127.625 39.9374 126.688C41.6249 125.688 42.1874 122.75 41.4999 119.125C41.4374 118.875 41.3749 118.562 41.3124 118.312C41.4999 118.25 41.6874 118.188 41.8749 118.125C45.4999 116.938 48.1249 115 48.1249 113C48.1249 111.125 45.6249 109.25 42.2499 108.125ZM33.7499 102.812C36.1249 100.75 38.2499 100 39.2499 100.562C40.3124 101.125 40.7499 103.625 40.0624 106.812C39.9999 107.062 39.9999 107.25 39.9374 107.438C38.4999 107.125 37.1249 106.938 35.6874 106.812C34.8749 105.625 33.9999 104.5 33.0624 103.438C33.3124 103.25 33.4999 103 33.7499 102.812ZM26.5624 116.25C26.8749 116.812 27.1874 117.312 27.5624 117.875C26.5624 117.75 25.5624 117.625 24.6249 117.375C24.9374 116.5 25.2499 115.562 25.6249 114.625C25.9374 115.188 26.2499 115.688 26.5624 116.25ZM24.6249 108.75C25.5624 108.5 26.4999 108.375 27.4999 108.25C27.1874 108.75 26.8749 109.312 26.5624 109.812C26.2499 110.375 25.9374 110.875 25.6249 111.438C25.2499 110.5 24.9374 109.625 24.6249 108.75ZM26.3749 113.062C26.7499 112.188 27.2499 111.312 27.6874 110.5C28.1874 109.688 28.6874 108.875 29.2499 108.062C30.1874 108 31.1249 107.938 32.1249 107.938C33.0624 107.938 34.0624 108 34.9374 108.062C35.4999 108.875 35.9999 109.688 36.4999 110.5C36.9374 111.312 37.4374 112.125 37.8124 113C37.4374 113.875 36.9999 114.75 36.4999 115.562C35.9999 116.375 35.4999 117.188 34.9999 118C34.0624 118.062 33.0624 118.125 32.1249 118.125C31.1249 118.125 30.1874 118.062 29.2499 118C28.6874 117.188 28.1874 116.375 27.6874 115.562C27.2499 114.75 26.8124 113.875 26.3749 113.062ZM37.6249 116.25C37.9999 115.688 38.2499 115.125 38.5624 114.562C38.9374 115.5 39.3124 116.375 39.6249 117.312C38.6249 117.562 37.6874 117.75 36.6874 117.812C36.9999 117.312 37.3124 116.75 37.6249 116.25ZM38.5624 111.438C38.2499 110.875 37.9374 110.375 37.6249 109.812C37.3124 109.312 36.9999 108.75 36.6874 108.25C37.6874 108.375 38.6874 108.562 39.5624 108.75C39.2499 109.688 38.9374 110.562 38.5624 111.438ZM32.1249 104.438C32.7499 105.125 33.3749 105.875 33.9374 106.688C32.7499 106.625 31.4999 106.625 30.2499 106.688C30.8749 105.875 31.4999 105.125 32.1249 104.438ZM24.8749 100.562C25.9374 100 28.2499 100.875 30.6874 103C30.8749 103.188 30.9999 103.312 31.1874 103.438C30.1874 104.5 29.3124 105.625 28.4999 106.812C27.0624 106.938 25.6874 107.125 24.3124 107.438C24.1874 107.125 24.1249 106.812 24.0624 106.438C23.4999 103.438 23.8749 101.188 24.8749 100.562ZM23.3124 117.062C23.0624 117 22.8124 116.938 22.5624 116.812C21.2499 116.375 19.6874 115.75 18.6249 114.875C17.9999 114.438 17.5624 113.75 17.4374 113C17.4374 111.875 19.4374 110.375 22.2499 109.375C22.6249 109.25 22.9999 109.188 23.3749 109.062C23.7499 110.438 24.3124 111.75 24.8749 113.062C24.2499 114.312 23.7499 115.688 23.3124 117.062ZM30.6249 123.188C29.5624 124.125 28.3749 124.875 27.0624 125.375C26.3749 125.75 25.6249 125.75 24.8749 125.5C23.8749 124.875 23.4999 122.688 24.0624 119.75C24.1249 119.375 24.1874 119 24.2499 118.688C25.6874 119 27.0624 119.188 28.4999 119.312C29.3124 120.438 30.2499 121.562 31.1874 122.625C30.9999 122.812 30.8124 123 30.6249 123.188ZM32.1249 121.688C31.4999 121 30.8749 120.25 30.2499 119.375C30.8749 119.438 31.4999 119.438 32.1249 119.438C32.7499 119.438 33.3749 119.438 33.9999 119.375C33.4374 120.188 32.8124 120.938 32.1249 121.688ZM40.3124 123.562C40.2499 124.312 39.8749 125 39.3124 125.5C38.3124 126.062 36.1874 125.312 33.8749 123.375C33.6249 123.125 33.3749 122.875 33.0624 122.625C34.0624 121.562 34.9374 120.5 35.7499 119.312C37.1874 119.188 38.5624 118.938 39.9999 118.625C40.0624 118.875 40.1249 119.125 40.1874 119.375C40.4374 120.75 40.4999 122.188 40.3124 123.562ZM41.4374 116.812C41.2499 116.875 41.1249 116.938 40.9374 117C40.4999 115.625 39.9374 114.312 39.3124 113C39.9374 111.75 40.4374 110.438 40.8749 109.062C41.1874 109.188 41.4999 109.25 41.8124 109.375C44.6874 110.375 46.7499 111.875 46.7499 113C46.7499 114.188 44.5624 115.812 41.4374 116.812ZM32.1249 115.875C33.6874 115.875 34.9374 114.625 34.9374 113C34.9374 111.438 33.6874 110.188 32.1249 110.188C30.4999 110.188 29.2499 111.438 29.2499 113C29.2499 114.625 30.4999 115.875 32.1249 115.875Z" fill="#464646"/>
<path d="M17.3089 154V142.64H22.3329C22.8556 142.64 23.3356 142.752 23.7729 142.976C24.2209 143.189 24.6049 143.477 24.9249 143.84C25.2449 144.192 25.4956 144.597 25.6769 145.056C25.8583 145.504 25.9489 145.957 25.9489 146.416C25.9489 147.152 25.7623 147.824 25.3889 148.432C25.0263 149.029 24.5303 149.461 23.9009 149.728L26.4929 154H24.0129L21.6929 150.192H19.5169V154H17.3089ZM19.5169 148.256H22.2849C22.4876 148.256 22.6743 148.208 22.8449 148.112C23.0263 148.016 23.1809 147.888 23.3089 147.728C23.4369 147.557 23.5383 147.36 23.6129 147.136C23.6876 146.912 23.7249 146.672 23.7249 146.416C23.7249 146.149 23.6823 145.904 23.5969 145.68C23.5116 145.456 23.3943 145.264 23.2449 145.104C23.1063 144.933 22.9409 144.805 22.7489 144.72C22.5676 144.624 22.3809 144.576 22.1889 144.576H19.5169V148.256ZM31.3952 154.16C30.7232 154.16 30.1152 154.048 29.5712 153.824C29.0272 153.589 28.5632 153.275 28.1792 152.88C27.7952 152.485 27.4965 152.027 27.2832 151.504C27.0805 150.981 26.9792 150.432 26.9792 149.856C26.9792 149.259 27.0805 148.699 27.2832 148.176C27.4859 147.643 27.7792 147.179 28.1632 146.784C28.5472 146.379 29.0112 146.059 29.5552 145.824C30.1099 145.589 30.7285 145.472 31.4112 145.472C32.0939 145.472 32.7019 145.589 33.2352 145.824C33.7792 146.059 34.2379 146.373 34.6112 146.768C34.9952 147.163 35.2832 147.621 35.4752 148.144C35.6779 148.667 35.7792 149.211 35.7792 149.776C35.7792 149.915 35.7739 150.048 35.7632 150.176C35.7632 150.304 35.7525 150.411 35.7312 150.496H29.2512C29.2832 150.827 29.3632 151.12 29.4912 151.376C29.6192 151.632 29.7845 151.851 29.9872 152.032C30.1899 152.213 30.4192 152.352 30.6752 152.448C30.9312 152.544 31.1979 152.592 31.4752 152.592C31.9019 152.592 32.3019 152.491 32.6752 152.288C33.0592 152.075 33.3205 151.797 33.4592 151.456L35.2992 151.968C34.9899 152.608 34.4939 153.136 33.8112 153.552C33.1392 153.957 32.3339 154.16 31.3952 154.16ZM33.5712 149.104C33.5179 148.475 33.2832 147.973 32.8672 147.6C32.4619 147.216 31.9659 147.024 31.3792 147.024C31.0912 147.024 30.8192 147.077 30.5632 147.184C30.3179 147.28 30.0992 147.419 29.9072 147.6C29.7152 147.781 29.5552 148 29.4272 148.256C29.3099 148.512 29.2405 148.795 29.2192 149.104H33.5712ZM39.3733 154.16C38.968 154.16 38.5893 154.096 38.2373 153.968C37.8853 153.829 37.5813 153.643 37.3253 153.408C37.0693 153.163 36.8666 152.88 36.7173 152.56C36.5786 152.24 36.5093 151.888 36.5093 151.504C36.5093 151.109 36.5946 150.747 36.7653 150.416C36.9466 150.075 37.192 149.787 37.5013 149.552C37.8213 149.317 38.2 149.136 38.6373 149.008C39.0746 148.869 39.5546 148.8 40.0773 148.8C40.4506 148.8 40.8133 148.832 41.1653 148.896C41.528 148.96 41.848 149.051 42.1253 149.168V148.688C42.1253 148.133 41.9653 147.707 41.6453 147.408C41.336 147.109 40.872 146.96 40.2533 146.96C39.8053 146.96 39.368 147.04 38.9413 147.2C38.5146 147.36 38.0773 147.595 37.6293 147.904L36.9733 146.544C38.0506 145.829 39.2133 145.472 40.4613 145.472C41.6666 145.472 42.6 145.771 43.2613 146.368C43.9333 146.955 44.2693 147.808 44.2693 148.928V151.536C44.2693 151.76 44.3066 151.92 44.3813 152.016C44.4666 152.112 44.6 152.165 44.7813 152.176V154C44.4186 154.075 44.104 154.112 43.8373 154.112C43.432 154.112 43.1173 154.021 42.8933 153.84C42.68 153.659 42.5466 153.419 42.4933 153.12L42.4453 152.656C42.072 153.147 41.6186 153.52 41.0853 153.776C40.552 154.032 39.9813 154.16 39.3733 154.16ZM39.9813 152.592C40.344 152.592 40.6853 152.528 41.0053 152.4C41.336 152.272 41.592 152.101 41.7733 151.888C42.008 151.707 42.1253 151.504 42.1253 151.28V150.32C41.8693 150.224 41.592 150.149 41.2933 150.096C40.9946 150.032 40.7066 150 40.4293 150C39.8746 150 39.4213 150.128 39.0693 150.384C38.7173 150.629 38.5413 150.944 38.5413 151.328C38.5413 151.691 38.68 151.995 38.9573 152.24C39.2346 152.475 39.576 152.592 39.9813 152.592ZM45.7448 149.808C45.7448 149.221 45.8461 148.667 46.0488 148.144C46.2515 147.621 46.5448 147.163 46.9288 146.768C47.3128 146.373 47.7768 146.059 48.3208 145.824C48.8648 145.589 49.4781 145.472 50.1608 145.472C51.0781 145.472 51.8568 145.669 52.4968 146.064C53.1475 146.459 53.6328 146.976 53.9528 147.616L51.8568 148.256C51.6755 147.947 51.4355 147.712 51.1368 147.552C50.8381 147.381 50.5075 147.296 50.1448 147.296C49.8355 147.296 49.5475 147.36 49.2808 147.488C49.0141 147.605 48.7795 147.776 48.5768 148C48.3848 148.213 48.2301 148.475 48.1128 148.784C48.0061 149.093 47.9528 149.435 47.9528 149.808C47.9528 150.181 48.0115 150.523 48.1288 150.832C48.2461 151.141 48.4008 151.408 48.5928 151.632C48.7955 151.856 49.0301 152.032 49.2968 152.16C49.5635 152.277 49.8461 152.336 50.1448 152.336C50.5288 152.336 50.8808 152.24 51.2008 152.048C51.5315 151.856 51.7608 151.621 51.8888 151.344L53.9848 151.984C53.6968 152.624 53.2221 153.147 52.5608 153.552C51.8995 153.957 51.1048 154.16 50.1768 154.16C49.4941 154.16 48.8808 154.043 48.3368 153.808C47.7928 153.573 47.3288 153.259 46.9448 152.864C46.5608 152.459 46.2621 151.995 46.0488 151.472C45.8461 150.939 45.7448 150.384 45.7448 149.808ZM60.3281 153.568C60.0401 153.696 59.6881 153.824 59.2721 153.952C58.8561 154.08 58.4187 154.144 57.9601 154.144C57.6614 154.144 57.3787 154.107 57.1121 154.032C56.8561 153.957 56.6267 153.84 56.4241 153.68C56.2321 153.509 56.0774 153.296 55.9601 153.04C55.8427 152.773 55.7841 152.453 55.7841 152.08V147.264H54.6801V145.616H55.7841V142.896H57.9281V145.616H59.6881V147.264H57.9281V151.36C57.9281 151.659 58.0027 151.872 58.1521 152C58.3121 152.117 58.5041 152.176 58.7281 152.176C58.9521 152.176 59.1707 152.139 59.3841 152.064C59.5974 151.989 59.7681 151.925 59.8961 151.872L60.3281 153.568Z" fill="#464646"/>
</svg>
