<svg width="176" height="174" viewBox="0 0 176 174" fill="none" xmlns="http://www.w3.org/2000/svg">
<rect width="176" height="174" fill="white"/>
<path d="M44 103H20C18.5333 103 17.3333 104.2 17.3333 105.667V121.667C17.3333 123.133 18.5333 124.333 20 124.333H26.6666V127H37.3333V124.333H44C45.4666 124.333 46.6533 123.133 46.6533 121.667L46.6666 105.667C46.6666 104.2 45.4666 103 44 103ZM44 121.667H20V105.667H44V121.667Z" fill="#2A7AE4"/>
<path d="M18.352 142.64L21.424 151.376L24.464 142.64H26.784L22.48 154H20.352L16.032 142.64H18.352ZM30.5828 154.16C29.6761 154.16 28.8921 153.963 28.2308 153.568C27.5801 153.173 27.0734 152.651 26.7108 152C26.3481 151.339 26.1668 150.624 26.1668 149.856C26.1668 149.067 26.3428 148.341 26.6948 147.68C27.0574 147.008 27.5694 146.475 28.2308 146.08C28.8921 145.675 29.6814 145.472 30.5988 145.472C31.5161 145.472 32.3001 145.675 32.9508 146.08C33.6014 146.475 34.0974 147.003 34.4388 147.664C34.7908 148.315 34.9668 149.019 34.9668 149.776C34.9668 150.053 34.9508 150.293 34.9188 150.496H28.4388C28.4921 151.147 28.7321 151.659 29.1588 152.032C29.5961 152.405 30.0974 152.592 30.6628 152.592C31.0894 152.592 31.4894 152.491 31.8628 152.288C32.2468 152.075 32.5081 151.797 32.6468 151.456L34.4868 151.968C34.1774 152.608 33.6814 153.136 32.9988 153.552C32.3161 153.957 31.5108 154.16 30.5828 154.16ZM28.3908 149.136H32.7748C32.7108 148.507 32.4708 148 32.0548 147.616C31.6494 147.221 31.1534 147.024 30.5668 147.024C29.9908 147.024 29.4948 147.221 29.0788 147.616C28.6734 148 28.4441 148.507 28.3908 149.136ZM41.2649 147.472C40.6142 147.472 40.0329 147.6 39.5209 147.856C39.0089 148.101 38.6409 148.459 38.4169 148.928V154H36.2729V145.616H38.2409V147.408C38.5289 146.832 38.9022 146.379 39.3609 146.048C39.8302 145.717 40.3209 145.536 40.8329 145.504C41.0569 145.504 41.2009 145.509 41.2649 145.52V147.472ZM49.0328 154.16C48.3181 154.16 47.6354 154.043 46.9848 153.808C46.3341 153.573 45.7741 153.227 45.3048 152.768L46.0728 151.376C46.5741 151.781 47.0648 152.08 47.5448 152.272C48.0248 152.464 48.4941 152.56 48.9528 152.56C49.3688 152.56 49.6994 152.485 49.9448 152.336C50.2008 152.187 50.3288 151.963 50.3288 151.664C50.3288 151.355 50.1741 151.147 49.8648 151.04C49.5554 150.923 49.1234 150.779 48.5688 150.608C47.9501 150.416 47.4328 150.219 47.0168 150.016C46.6008 149.813 46.2861 149.568 46.0728 149.28C45.8701 148.992 45.7688 148.619 45.7688 148.16C45.7688 147.339 46.0781 146.683 46.6968 146.192C47.3154 145.701 48.1368 145.456 49.1608 145.456C49.7581 145.456 50.3234 145.552 50.8568 145.744C51.3901 145.925 51.8754 146.224 52.3128 146.64L51.4488 148C50.6274 147.36 49.8328 147.04 49.0648 147.04C48.7234 147.04 48.4194 147.104 48.1528 147.232C47.8968 147.36 47.7688 147.584 47.7688 147.904C47.7688 148.203 47.8914 148.416 48.1368 148.544C48.3928 148.672 48.7768 148.811 49.2888 148.96C49.9501 149.163 50.5101 149.36 50.9688 149.552C51.4381 149.744 51.7901 149.989 52.0248 150.288C52.2701 150.587 52.3928 150.992 52.3928 151.504C52.3928 152.336 52.0888 152.987 51.4808 153.456C50.8728 153.925 50.0568 154.16 49.0328 154.16ZM57.739 154.16C56.8323 154.16 56.0483 153.963 55.387 153.568C54.7363 153.173 54.2297 152.651 53.867 152C53.5043 151.339 53.323 150.624 53.323 149.856C53.323 149.067 53.499 148.341 53.851 147.68C54.2137 147.008 54.7257 146.475 55.387 146.08C56.0483 145.675 56.8377 145.472 57.755 145.472C58.6723 145.472 59.4563 145.675 60.107 146.08C60.7577 146.475 61.2537 147.003 61.595 147.664C61.947 148.315 62.123 149.019 62.123 149.776C62.123 150.053 62.107 150.293 62.075 150.496H55.595C55.6483 151.147 55.8883 151.659 56.315 152.032C56.7523 152.405 57.2537 152.592 57.819 152.592C58.2457 152.592 58.6457 152.491 59.019 152.288C59.403 152.075 59.6643 151.797 59.803 151.456L61.643 151.968C61.3337 152.608 60.8377 153.136 60.155 153.552C59.4723 153.957 58.667 154.16 57.739 154.16ZM55.547 149.136H59.931C59.867 148.507 59.627 148 59.211 147.616C58.8057 147.221 58.3097 147.024 57.723 147.024C57.147 147.024 56.651 147.221 56.235 147.616C55.8297 148 55.6003 148.507 55.547 149.136ZM68.4211 147.472C67.7705 147.472 67.1891 147.6 66.6771 147.856C66.1651 148.101 65.7971 148.459 65.5731 148.928V154H63.4291V145.616H65.3971V147.408C65.6851 146.832 66.0585 146.379 66.5171 146.048C66.9865 145.717 67.4771 145.536 67.9891 145.504C68.2131 145.504 68.3571 145.509 68.4211 145.52V147.472ZM69.6166 144.448V142.32H71.7606V144.448H69.6166ZM69.6166 154V145.616H71.7606V154H69.6166ZM77.5828 154.16C76.6761 154.16 75.8921 153.963 75.2308 153.568C74.5801 153.173 74.0734 152.651 73.7108 152C73.3481 151.339 73.1668 150.624 73.1668 149.856C73.1668 149.067 73.3428 148.341 73.6948 147.68C74.0574 147.008 74.5694 146.475 75.2308 146.08C75.8921 145.675 76.6814 145.472 77.5988 145.472C78.5161 145.472 79.3001 145.675 79.9508 146.08C80.6014 146.475 81.0974 147.003 81.4388 147.664C81.7908 148.315 81.9668 149.019 81.9668 149.776C81.9668 150.053 81.9508 150.293 81.9188 150.496H75.4388C75.4921 151.147 75.7321 151.659 76.1588 152.032C76.5961 152.405 77.0974 152.592 77.6628 152.592C78.0894 152.592 78.4894 152.491 78.8628 152.288C79.2468 152.075 79.5081 151.797 79.6468 151.456L81.4868 151.968C81.1774 152.608 80.6814 153.136 79.9988 153.552C79.3161 153.957 78.5108 154.16 77.5828 154.16ZM75.3908 149.136H79.7748C79.7108 148.507 79.4708 148 79.0548 147.616C78.6494 147.221 78.1534 147.024 77.5668 147.024C76.9908 147.024 76.4948 147.221 76.0788 147.616C75.6734 148 75.4441 148.507 75.3908 149.136ZM86.3609 154.16C85.6462 154.16 84.9635 154.043 84.3129 153.808C83.6622 153.573 83.1022 153.227 82.6329 152.768L83.4009 151.376C83.9022 151.781 84.3929 152.08 84.8729 152.272C85.3529 152.464 85.8222 152.56 86.2809 152.56C86.6969 152.56 87.0275 152.485 87.2729 152.336C87.5289 152.187 87.6569 151.963 87.6569 151.664C87.6569 151.355 87.5022 151.147 87.1929 151.04C86.8835 150.923 86.4515 150.779 85.8969 150.608C85.2782 150.416 84.7609 150.219 84.3449 150.016C83.9289 149.813 83.6142 149.568 83.4009 149.28C83.1982 148.992 83.0969 148.619 83.0969 148.16C83.0969 147.339 83.4062 146.683 84.0249 146.192C84.6435 145.701 85.4649 145.456 86.4889 145.456C87.0862 145.456 87.6515 145.552 88.1849 145.744C88.7182 145.925 89.2035 146.224 89.6409 146.64L88.7769 148C87.9555 147.36 87.1609 147.04 86.3929 147.04C86.0515 147.04 85.7475 147.104 85.4809 147.232C85.2249 147.36 85.0969 147.584 85.0969 147.904C85.0969 148.203 85.2195 148.416 85.4649 148.544C85.7209 148.672 86.1049 148.811 86.6169 148.96C87.2782 149.163 87.8382 149.36 88.2969 149.552C88.7662 149.744 89.1182 149.989 89.3529 150.288C89.5982 150.587 89.7209 150.992 89.7209 151.504C89.7209 152.336 89.4169 152.987 88.8089 153.456C88.2009 153.925 87.3849 154.16 86.3609 154.16Z" fill="#464646"/>
</svg>
